<svg width="40" height="40" viewBox="0 0 40 40" fill="none" xmlns="http://www.w3.org/2000/svg">
<path d="M24.4995 10.5C24.1941 10.8115 24.023 11.2304 24.023 11.6666C24.023 12.1029 24.1941 12.5218 24.4995 12.8333L27.1661 15.5C27.4777 15.8053 27.8966 15.9764 28.3328 15.9764C28.7691 15.9764 29.1879 15.8053 29.4995 15.5L34.6761 10.325C35.2095 9.7883 36.1145 9.9583 36.3145 10.6883C36.818 12.5198 36.7896 14.4567 36.2324 16.2726C35.6753 18.0885 34.6125 19.7081 33.1684 20.942C31.7244 22.1759 29.9588 22.973 28.0782 23.2401C26.1977 23.5071 24.28 23.2331 22.5495 22.45L9.36614 35.6333C8.7031 36.2961 7.80391 36.6684 6.86639 36.6682C5.92886 36.6681 5.0298 36.2955 4.36698 35.6325C3.70416 34.9694 3.33188 34.0702 3.33203 33.1327C3.33219 32.1952 3.70477 31.2961 4.36781 30.6333L17.5511 17.45C16.768 15.7195 16.494 13.8018 16.761 11.9212C17.0281 10.0407 17.8252 8.27505 19.0591 6.83099C20.293 5.38693 21.9126 4.32415 23.7285 3.76701C25.5444 3.20987 27.4814 3.18141 29.3128 3.68497C30.0428 3.88497 30.2128 4.7883 29.6778 5.32497L24.4995 10.5Z" stroke="white" stroke-width="3.33333" stroke-linecap="round" stroke-linejoin="round"/>
</svg>
