<svg width="326" height="76" viewBox="0 0 326 76" fill="none" xmlns="http://www.w3.org/2000/svg">
<path d="M302.083 1.68848C315.292 1.68848 326 10.763 326 21.957V55.7393C326 66.9334 315.292 76.0078 302.083 76.0078H254.25C248.271 76.0078 244.285 72.1196 244.285 69.252C244.285 72.1196 240.298 76.0078 234.319 76.0078V21.957C234.32 10.763 245.028 1.68848 258.236 1.68848H302.083ZM83.8418 19.7012H93.8867V25.2139H83.8418V47.915C83.8418 49.8068 84.2878 51.213 85.1807 52.1318C86.1373 52.9966 87.3177 53.4287 88.7207 53.4287C90.3789 53.4287 92.101 52.8336 93.8867 51.6445L96.2783 53.5908C95.0028 55.6447 93.2168 57.239 90.9209 58.374C88.6887 59.5091 85.7864 60.0771 82.2148 60.0771C77.9419 60.0771 74.5934 59.212 72.1699 57.4824C69.7465 55.6988 68.5352 52.8071 68.5352 48.8076V44.916C68.5989 43.6729 68.6309 42.2667 68.6309 40.6992V25.2139H62.4121V20.4307L69.4912 19.6201L74.2744 8.26953H84.0332L83.8418 19.7012ZM152.696 18.4043C158.819 18.4043 163.188 19.5926 165.803 21.9707C168.481 24.3489 169.82 28.2684 169.82 33.7275V51.8877C169.82 53.455 170.522 54.2391 171.925 54.2393C172.435 54.2393 172.914 54.1312 173.36 53.915C173.807 53.6448 174.285 53.1585 174.795 52.4561L177.378 53.915C176.23 56.077 174.731 57.6443 172.882 58.6172C171.096 59.536 168.768 59.9961 165.898 59.9961C160.35 59.9961 156.842 58.0498 155.375 54.1582C153.334 55.9959 151.357 57.4551 149.443 58.5361C147.594 59.5631 145.011 60.0771 141.694 60.0771C137.995 60.0771 134.966 59.1849 132.606 57.4014C130.31 55.6177 129.162 53.0503 129.162 49.6992C129.162 47.7534 129.672 45.9962 130.692 44.4287C131.713 42.8613 133.563 41.402 136.241 40.0508C138.92 38.6995 142.715 37.4293 147.626 36.2402C148.583 35.97 149.699 35.6999 150.975 35.4297C152.25 35.1595 153.557 34.8894 154.896 34.6191V31.9434C154.896 28.3221 154.355 25.8626 153.271 24.5654C152.25 23.2682 150.209 22.6201 147.147 22.6201H145.904C145.522 22.6201 145.075 22.6471 144.564 22.7012L144.086 26.2686C144.022 28.9168 143.289 30.8354 141.886 32.0244C140.546 33.2135 138.952 33.8086 137.103 33.8086C133.595 33.8086 131.458 32.4572 130.692 29.7549C130.947 26.4037 132.957 23.6734 136.72 21.5654C140.483 19.4575 145.808 18.4043 152.696 18.4043ZM200.643 18.4043C203.449 18.4043 206.032 18.7014 208.392 19.2959C210.815 19.8364 213.271 20.6466 215.758 21.7275L215.088 30.5654H207.435L205.521 23.5928C204.182 23.1604 202.428 22.9443 200.26 22.9443C198.091 22.9443 196.337 23.3224 194.998 24.0791C193.723 24.8358 193.085 25.971 193.085 27.4844C193.085 28.5654 193.595 29.5385 194.615 30.4033C195.636 31.2141 197.805 32.0512 201.121 32.916L205.809 34.0518C210.337 35.1868 213.589 36.8081 215.566 38.916C217.544 41.024 218.532 43.5914 218.532 46.6182C218.532 50.8882 216.587 54.2126 212.696 56.5908C208.87 58.9149 203.576 60.0771 196.815 60.0771C190.757 60.0771 185.208 58.8338 180.17 56.3477L180.457 46.4561H188.11L189.736 54.4824C190.884 54.8608 192.033 55.1578 193.181 55.374C194.329 55.5361 195.572 55.6172 196.911 55.6172C199.654 55.6172 201.759 55.2391 203.226 54.4824C204.692 53.6717 205.426 52.4554 205.426 50.834C205.426 49.5909 204.884 48.5096 203.8 47.5908C202.716 46.672 200.579 45.8348 197.39 45.0781L192.224 43.7803C188.525 42.8614 185.654 41.3752 183.613 39.3213C181.636 37.2674 180.648 34.7269 180.648 31.7002C180.648 27.9707 182.37 24.8363 185.814 22.2959C189.258 19.7015 194.201 18.4043 200.643 18.4043ZM56.6348 54.0771L62.4707 54.6445V58.8604H32.9092V54.6445L40.2754 53.834L36.3535 43.375H17.124L13.2979 53.5098L20.5684 54.4824V58.8604H0V54.4824L7.74902 53.5098L27.1689 5.5127H37.0234L56.6348 54.0771ZM119.557 0.810547L119.174 12.1611V47.9961C119.238 50.05 119.301 52.1043 119.365 54.1582L124.627 55.0498V58.8604H98.4141V55.0498L103.676 54.0771C103.74 52.0232 103.771 49.9689 103.771 47.915C103.835 45.8613 103.867 43.8346 103.867 41.835V7.86426L97.9355 7.05273V3.64844L118.026 0L119.557 0.810547ZM265.135 19.2012C264.54 19.2012 263.966 19.381 263.413 19.7412C262.86 20.0655 262.477 20.5526 262.265 21.2012C262.222 21.3452 262.116 21.4897 261.946 21.6338C261.819 21.7419 261.648 21.8499 261.436 21.958C261.18 21.886 260.734 21.8319 260.097 21.7959C259.502 21.7238 258.8 21.7593 257.992 21.9033C257.354 22.0475 256.844 22.1555 256.461 22.2275C256.121 22.2636 255.802 22.3176 255.504 22.3896C254.866 22.4258 254.335 22.7508 253.91 23.3633C253.528 23.9758 253.293 24.57 253.208 25.1465C253.208 25.4708 253.379 25.6868 253.719 25.7949C254.059 25.903 254.441 25.9393 254.866 25.9033C255.036 25.8673 255.228 25.8496 255.44 25.8496C255.696 25.8136 256.079 25.7596 256.589 25.6875C257.609 25.6515 258.29 25.5975 258.63 25.5254C258.8 25.5256 258.821 25.6877 258.693 26.0117C258.608 26.336 258.481 26.7505 258.311 27.2549C258.226 27.507 258.098 27.8491 257.928 28.2812C257.758 28.6776 257.63 28.9486 257.545 29.0928C257.544 29.1303 257.438 29.3823 257.227 29.8486C257.014 30.3171 256.78 30.8945 256.524 31.5791C256.269 32.2275 255.993 32.876 255.695 33.5244C255.44 34.1367 255.25 34.6231 255.122 34.9834C254.697 35.7761 254.314 36.3712 253.974 36.7676C253.676 37.1279 253.421 37.3803 253.208 37.5244C252.911 37.8483 252.741 38.0824 252.698 38.2266C252.656 38.3346 252.656 38.5871 252.698 38.9834C252.486 39.4518 252.315 39.9743 252.188 40.5508C252.06 41.0913 251.763 41.704 251.295 42.3887C250.87 43.0733 250.424 43.9562 249.956 45.0371C249.531 46.0821 249.105 47.1632 248.68 48.2803C248.297 49.3973 247.936 50.4245 247.596 51.3613C247.298 52.2621 247.086 52.9466 246.958 53.415C246.66 54.2077 246.681 54.9286 247.021 55.5771C247.362 56.1897 248 56.6945 248.936 57.0908C249.276 57.415 249.765 57.5771 250.402 57.5771C251.082 57.5771 251.487 57.3069 251.614 56.7666C251.827 56.6585 251.976 56.2978 252.061 55.6855C252.146 55.073 252.379 54.3336 252.762 53.4688C252.762 53.1805 252.89 52.6762 253.145 51.9561C253.442 51.1994 253.803 50.3342 254.229 49.3613C254.654 48.3525 255.101 47.3438 255.568 46.335C256.079 45.326 256.547 44.4069 256.972 43.5781C257.397 42.7133 257.758 42.0642 258.056 41.6318C258.056 41.3438 258.141 41.1098 258.311 40.9297C258.523 40.7495 258.63 40.6592 258.63 40.6592C259.013 40.7312 259.671 40.7853 260.606 40.8213C261.584 40.8213 262.648 40.8036 263.796 40.7676C264.986 40.7315 266.092 40.6952 267.112 40.6592C268.133 40.6231 268.919 40.5868 269.472 40.5508C271.342 40.3706 272.66 40.1909 273.426 40.0107C274.234 39.7945 274.765 39.6139 275.021 39.4697C275.573 39.2175 275.892 38.8216 275.978 38.2812C276.063 37.7047 275.977 37.1637 275.722 36.6592C275.467 36.119 275.084 35.831 274.574 35.7949C274.319 35.7589 273.851 35.7766 273.171 35.8486C272.491 35.9207 271.831 36.011 271.193 36.1191C269.833 36.2272 268.387 36.3353 266.856 36.4434C265.326 36.5154 263.923 36.5518 262.647 36.5518C261.415 36.5518 260.501 36.4791 259.905 36.335C259.99 36.2625 260.203 35.8843 260.543 35.2002C260.883 34.4795 261.265 33.6684 261.69 32.7676C262.116 31.8309 262.52 30.9664 262.902 30.1738C263.328 29.3811 263.626 28.8577 263.796 28.6055C264.178 27.669 264.582 26.9664 265.007 26.498C265.432 25.9936 265.73 25.7412 265.9 25.7412C265.909 25.7392 266.228 25.6674 266.856 25.5254C267.537 25.3452 268.345 25.2372 269.28 25.2012C271.619 24.9129 273.553 24.7499 275.084 24.7139C276.657 24.6418 278.358 24.7145 280.187 24.9307C281.717 24.9667 282.674 24.9667 283.057 24.9307C283.439 24.8586 283.652 24.6602 283.694 24.3359C283.737 24.2279 283.779 24.0116 283.821 23.6875C283.906 23.3272 283.928 22.9845 283.886 22.6602C283.886 22.3001 283.737 22.0662 283.439 21.958C283.227 21.8139 283.056 21.7235 282.929 21.6875C282.801 21.6155 282.823 21.6155 282.993 21.6875C282.994 21.685 283.015 21.6309 283.057 21.5254C283.099 21.3813 283.035 21.2369 282.865 21.0928C282.61 20.9126 282.27 20.8046 281.845 20.7686C281.462 20.6965 280.824 20.5884 279.932 20.4443C279.719 20.5885 279.315 20.6601 278.72 20.6602C278.167 20.6241 277.529 20.6605 276.807 20.7686C276.126 20.5884 275.19 20.5344 274 20.6064C272.852 20.6785 271.895 20.7502 271.13 20.8223C269.684 21.0745 268.664 21.2552 268.068 21.3633C267.516 21.4352 267.198 21.4351 267.112 21.3633C267.07 21.2912 267.027 21.2009 266.984 21.0928C267.154 20.4082 267.048 19.922 266.665 19.6338C266.282 19.3096 265.772 19.1651 265.135 19.2012ZM297.321 36.4434C296.811 36.1551 296.152 36.1728 295.344 36.4971C294.579 36.7853 294.026 37.0741 293.686 37.3623C293.346 37.7945 293.176 38.1011 293.176 38.2812C293.219 38.4256 293.495 38.8039 294.005 39.416C294.175 39.8483 294.409 40.3887 294.706 41.0371C295.046 41.6497 295.365 42.2447 295.663 42.8213L296.364 44.875L293.112 47.6855C291.922 48.5503 290.88 49.3978 289.987 50.2266C289.137 51.0553 288.711 51.4697 288.711 51.4697C288.711 52.118 288.903 52.6762 289.285 53.1445C289.71 53.613 290.178 53.992 290.688 54.2803C291.241 54.5324 291.687 54.6581 292.027 54.6582C292.367 54.6582 292.814 54.4422 293.367 54.0098C293.962 53.5413 294.855 52.8028 296.046 51.7939C296.896 51.0733 297.598 50.4605 298.15 49.9561C298.737 49.4587 299.035 49.2063 299.043 49.1992C299.468 49.1992 299.681 49.3792 299.681 49.7393C299.681 49.8833 299.745 50.0278 299.872 50.1719C299.995 50.2759 300.059 50.3301 300.063 50.334C300.276 50.334 300.383 50.4243 300.383 50.6045C300.383 50.8207 300.616 51.1634 301.084 51.6318C301.594 52.1002 302.211 52.6041 302.934 53.1445C303.656 53.685 304.38 54.1898 305.103 54.6582C305.825 55.0905 306.399 55.3793 306.824 55.5234C307.164 55.6675 307.547 55.7933 307.972 55.9014C308.397 56.0095 308.695 56.0635 308.865 56.0635C309.035 56.2076 309.248 56.298 309.503 56.334C309.8 56.37 310.034 56.3877 310.204 56.3877C310.544 56.3877 310.843 56.1353 311.098 55.6309C311.395 55.0905 311.565 54.5138 311.607 53.9014C311.65 53.2529 311.501 52.7843 311.161 52.4961C310.863 52.352 310.608 52.2263 310.396 52.1182C310.183 52.0101 309.991 51.9561 309.821 51.9561C309.736 51.9554 309.396 51.7747 308.802 51.415C308.207 51.0548 307.59 50.6588 306.952 50.2266C306.314 49.7581 305.867 49.3791 305.612 49.0908C305.315 48.9467 304.995 48.7129 304.655 48.3887C304.358 48.0644 304.124 47.7757 303.954 47.5234L302.934 46.0645L304.592 44.9287C305.527 44.2442 306.208 43.7403 306.633 43.416C307.058 43.0557 307.462 42.7307 307.845 42.4424C308.27 42.1541 308.866 41.7759 309.631 41.3076C310.481 40.9113 311.055 40.4604 311.353 39.9561C311.65 39.4157 311.799 38.9294 311.799 38.4971C311.799 38.1008 311.586 37.7226 311.161 37.3623C310.778 36.9659 310.332 36.6772 309.821 36.4971C309.311 36.2811 308.886 36.2809 308.546 36.4971C308.333 36.5692 307.887 36.8394 307.207 37.3076C306.527 37.7761 305.867 38.2268 305.229 38.6592C304.592 39.0912 304.21 39.3614 304.082 39.4697C304.082 39.4697 303.933 39.6143 303.636 39.9023C303.338 40.1545 302.934 40.4788 302.424 40.875C301.403 41.4515 300.744 41.7226 300.446 41.6865C300.191 41.6505 300.064 41.3439 300.063 40.7676C300.063 40.4793 299.872 39.9923 299.489 39.3076C299.149 38.5872 298.767 37.9387 298.342 37.3623C297.917 36.7498 297.576 36.4434 297.321 36.4434ZM285.67 38.6592C284.947 38.1548 284.331 37.975 283.82 38.1191C283.14 38.1552 282.8 38.389 282.8 38.8213C282.757 38.9654 282.609 39.3985 282.354 40.1191C282.098 40.8037 281.78 41.6328 281.397 42.6055C281.015 43.5423 280.632 44.4792 280.249 45.416C279.866 46.3167 279.526 47.0554 279.229 47.6318C279.101 47.956 278.973 48.298 278.846 48.6582C278.718 49.0184 278.676 49.2709 278.719 49.415C278.761 49.5591 278.718 49.7213 278.591 49.9014C278.506 50.0455 278.463 50.2625 278.463 50.5508C278.293 50.8391 278.187 51.2714 278.145 51.8477C278.102 52.3882 278.144 52.9469 278.271 53.5234C278.442 54.0999 278.697 54.5321 279.037 54.8203C279.76 55.5049 280.589 55.721 281.524 55.4688C282.502 55.2165 283.183 54.3522 283.565 52.875C283.778 52.5868 283.948 52.1899 284.075 51.6855C284.203 51.1812 284.31 50.6949 284.395 50.2266C284.48 49.7222 284.564 49.3794 284.649 49.1992C284.819 48.7309 285.011 48.2446 285.224 47.7402C285.479 47.2 285.691 46.7853 285.861 46.4971C285.946 46.0647 286.095 45.5236 286.308 44.875C286.563 44.1906 286.775 43.7043 286.945 43.416C287.413 42.5513 287.689 41.8844 287.774 41.416C287.859 40.9478 287.732 40.5695 287.393 40.2812C286.967 39.7047 286.393 39.1637 285.67 38.6592ZM154.896 38.1055C154.067 38.3217 153.238 38.5647 152.409 38.835C151.644 39.0511 150.974 39.2672 150.4 39.4834C148.232 40.2401 146.51 41.3213 145.234 42.7266C143.959 44.0778 143.321 45.6992 143.321 47.5908C143.321 49.5907 143.863 51.0779 144.947 52.0508C146.095 53.0235 147.466 53.5097 149.061 53.5098C149.762 53.5098 150.496 53.3746 151.261 53.1045C152.026 52.8342 153.238 52.2122 154.896 51.2393V38.1055ZM18.9424 38.6729H34.6318L26.8828 17.998L18.9424 38.6729ZM289.688 26.2812C288.796 25.9569 288.093 25.9393 287.583 26.2275C287.413 26.2637 287.243 26.3904 287.073 26.6064C286.946 26.7865 286.839 26.93 286.754 27.0381C286.371 27.5786 286.01 28.1737 285.67 28.8223C285.372 29.4708 285.011 29.9933 284.586 30.3896C284.501 30.4617 284.458 30.6601 284.458 30.9844C284.501 31.3086 284.628 31.6869 284.841 32.1191C285.096 32.5155 285.457 32.8582 285.925 33.1465C286.52 33.5068 287.307 33.5962 288.285 33.416C289.263 33.1998 290.071 32.7314 290.709 32.0107C291.474 31.2182 291.92 30.4617 292.048 29.7412C292.218 29.0205 292.111 28.3175 291.729 27.6328C291.303 27.0565 290.624 26.6055 289.688 26.2812Z" fill="white"/>
</svg>
