<svg width="3253" height="906" viewBox="0 0 3253 906" fill="none" xmlns="http://www.w3.org/2000/svg">
<path fill-rule="evenodd" clip-rule="evenodd" d="M3053.35 248.276C3022.02 246.841 2940.14 246.718 2910.74 250.919C2928.75 254.279 2946.81 257.459 2964.89 260.463C2965.25 260.838 2965.64 261.237 2966.05 261.659L2966.05 261.668C2972.93 268.783 2986.02 282.318 2986.79 291.218C2994.27 378.17 2992.73 470.45 2987.75 557.641C2985.74 592.897 2962.86 598.463 2937.93 604.53C2930.06 606.446 2921.99 608.411 2914.3 611.376C2956.89 614.253 3093.04 614.476 3132.64 609.425C3112.69 605.075 3095.32 602.406 3075.19 599.423C3044.3 566.777 3046.22 523.397 3048.25 477.61C3048.68 467.943 3049.11 458.17 3049.24 448.367C3054.72 448.512 3060.38 448.711 3066.16 448.915C3120.31 450.819 3185.66 453.118 3225.91 415.411C3261.95 381.642 3261.22 315.454 3225.59 281.424C3201.4 258.321 3176.48 254.024 3144.62 250.26C3116.38 247.495 3088.97 247.836 3060.83 248.186C3058.35 248.217 3055.85 248.248 3053.35 248.276ZM3060.83 248.186C3058.35 248.217 3055.85 248.248 3053.35 248.276L3055.06 256.498L3050.52 259.932C3047.26 288.188 3048.1 352.859 3048.73 400.49C3048.92 415.227 3049.09 428.332 3049.11 438.223C3053.25 438.32 3057.79 438.502 3062.61 438.695C3096.42 440.05 3144.04 441.959 3162.99 418.98C3201.47 372.311 3196.59 289.874 3139.46 260.805L3144.62 250.26C3116.38 247.495 3088.97 247.836 3060.83 248.186Z" fill="#24D4CC"/>
<path d="M3053.35 248.278C3084.12 247.921 3113.88 247.251 3144.61 250.261L3139.46 260.805C3116.01 255.19 3080.22 256.493 3055.05 256.498L3053.35 248.278Z" fill="#24C7CD"/>
<path d="M2399.39 240.183C2480.59 233.771 2517.59 286.039 2542.82 284.603C2552.84 275.564 2560.99 256.066 2567.28 243.353C2565.48 291.771 2569.01 345.272 2565.08 391.984C2535.08 313.667 2522.64 260.399 2423.76 249.021C2387.98 244.9 2351.35 277.781 2353.39 310.142C2358.61 392.898 2520.47 378.829 2563.37 440.184C2581.8 466.541 2589.83 479.999 2587.62 513.077C2579.26 595.004 2528.99 623.047 2454.71 618.038C2390.35 598.157 2356.32 544.613 2316.35 625.998C2316.18 562.399 2315.11 496.158 2316.72 432.782C2324.51 454.413 2327.92 477.553 2335.42 499.189C2352.66 556.529 2436.46 624.376 2498.61 607.84C2545.7 595.313 2574.93 535.059 2525.15 499.747C2467.25 454.838 2341.7 453.87 2316.86 373.528C2295.65 304.925 2340.98 259.347 2399.39 240.183Z" fill="#24D4CC"/>
<path d="M2636.59 433.001C2647.74 473.108 2650.6 511.796 2680.12 545.507C2713.49 583.344 2741.96 601.306 2790.6 609.611C2821.47 622.053 2875.79 573.449 2870.62 545.443C2850.39 435.697 2618.81 478.218 2631.62 336.329C2638 265.627 2692.8 235.845 2760.03 240.732C2774.49 244.682 2783.71 247.192 2797.86 253.254C2817.26 261.564 2842.25 289.368 2863.51 279.031C2871.02 275.384 2880.26 257.752 2884.87 249.952C2885.69 290.979 2887.49 354.078 2884.22 394.026C2859.17 317.751 2846.25 274.857 2761.75 250.414C2714.4 240.875 2657.53 272.746 2674.86 325.413C2699.3 381.392 2790.74 384.487 2844.69 411.95C2967.28 474.358 2893.31 653.802 2763.05 613.998C2704.21 596.02 2672 545.018 2636.2 626.743C2633 586.402 2633.49 471.79 2636.59 433.001Z" fill="#24D4CC"/>
<path d="M1621.61 249.404C1638.44 246.235 1704.94 247.352 1725.67 247.421C1794.01 248.011 1862.34 247.931 1930.66 247.187L1930.22 418.804C1916.36 391.16 1913.12 314.035 1877.85 282.179C1843.19 250.872 1785.35 256.529 1741.49 256.976C1741.43 281.647 1739.37 393.25 1743.2 411.429L1748.74 414.875C1819.66 417.278 1816.33 351.664 1829.65 298.976C1832.84 327.987 1831.61 369.232 1831.56 399.317C1831.68 445.917 1832.56 494.835 1830.44 541.147C1814.66 498.69 1819.43 415.391 1745.85 426.626C1735.38 439.727 1740.75 553.121 1749.71 573.619C1767.44 614.136 1785.06 595.191 1808.82 605.262L1808.56 609.457C1795.94 616.279 1632.69 612.855 1610.41 609.93C1622.65 605.496 1634.96 603.89 1647.36 600.333C1657.88 597.318 1669.5 590.065 1674.5 580.058C1688.15 552.749 1687.89 318.889 1677.21 285.295C1668.72 258.619 1643.87 261.761 1623.53 250.51C1622.88 250.148 1622.24 249.771 1621.61 249.404Z" fill="#24D4CC"/>
<path d="M1945.24 249.186C1979.93 246.846 2032.97 246.804 2067.85 248.17L2159.33 247.878L2256.65 247.798C2256.88 293.069 2258.96 359.108 2255.12 402.533C2235.38 326.519 2231.43 271.156 2143.26 256.295C2128.46 257.842 2096.47 256.827 2081.99 255.322C2071.34 267.211 2079.09 378.425 2076.66 400.827C2076.04 406.442 2077.24 421.696 2078.17 427.694C2098.99 441.636 2124.37 420.272 2138.07 402.959C2158.76 376.814 2154.65 335.968 2165.95 316.087C2173.76 321.377 2170.8 547.719 2167.06 573.098C2155.12 506.107 2159.15 445.236 2076.88 438.94C2076.88 484.641 2074.45 561.863 2077.71 605.028C2066.09 615.816 2041.92 606.601 2020.31 612.466C2005.66 613.838 1974.68 612.971 1960.54 610.568L1961.45 606.357L1968.21 603.119C1976.28 602.087 1984.71 601.274 1992.05 597.552C2002.42 592.304 2009.37 582.786 2012.73 571.816C2022.67 539.35 2023.89 302.262 2008.85 276.851C1997.83 258.236 1964.09 254.248 1945.24 249.186Z" fill="#24D4CC"/>
<path d="M1960.54 610.568L1961.45 606.357L1968.21 603.119C1976.71 604.049 1979.27 602.832 1984.86 607.702L1982.88 605.15L1986.74 607.564C1975.46 609.866 1971.9 610.137 1960.54 610.568Z" fill="#24C7CD"/>
<path d="M1410.39 249.425C1437.65 245.474 1582.76 247.415 1608.98 250.02C1588.58 255.657 1565.78 255.651 1549.93 271.406C1523.67 297.519 1533.12 459.65 1533.35 499.237C1533.59 538.818 1528.76 568.025 1559.05 597.95C1571.03 600.54 1587.8 601.826 1595.42 609.675C1577 616.571 1422.88 612.902 1397.57 609.387C1416.98 603.145 1458.81 602.821 1466.24 579.521C1485.21 519.979 1476.87 450.744 1478.05 388.613C1478.69 355.216 1476.68 316.831 1468.5 284.524C1462.39 260.522 1431.93 259.086 1412.7 250.472L1410.39 249.425Z" fill="#24D4CC"/>
<path d="M2149.65 601.924C2242.97 580.883 2233.84 515.817 2262.04 449.007C2265.27 499.313 2263.73 561.678 2263.43 612.925L2224.87 612.489C2213.85 603.955 2181.33 616.333 2149.65 601.924Z" fill="#24D4CC"/>
<path d="M2077.71 605.028C2094.05 601.769 2131.33 602.178 2149.66 601.923C2181.34 616.333 2213.86 603.954 2224.88 612.488C2168.02 615.556 2078.31 612.93 2020.31 612.467C2041.92 606.602 2066.09 615.817 2077.71 605.028Z" fill="#24C7CD"/>
<path d="M1430.62 683.272C1432.33 683.272 1433.79 683.875 1435 685.08C1436.2 686.285 1436.8 687.744 1436.8 689.457C1436.8 691.106 1436.2 692.534 1435 693.739C1433.79 694.944 1432.33 695.547 1430.62 695.547C1428.91 695.547 1427.45 694.944 1426.24 693.739C1425.04 692.534 1424.43 691.106 1424.43 689.457C1424.43 687.744 1425.04 686.285 1426.24 685.08C1427.45 683.875 1428.91 683.272 1430.62 683.272ZM1445.08 683.272C1446.79 683.272 1448.25 683.875 1449.46 685.08C1450.66 686.285 1451.27 687.744 1451.27 689.457C1451.27 691.106 1450.66 692.534 1449.46 693.739C1448.25 694.944 1446.79 695.547 1445.08 695.547C1443.43 695.547 1442.01 694.944 1440.8 693.739C1439.6 692.534 1438.99 691.106 1438.99 689.457C1438.99 687.744 1439.6 686.285 1440.8 685.08C1442.01 683.875 1443.43 683.272 1445.08 683.272ZM1451.27 701.636V735.89C1451.27 736.651 1451.49 737.222 1451.93 737.603C1452.31 738.047 1452.82 738.269 1453.46 738.269H1456.12V747.974H1450.13C1447.21 747.974 1444.57 746.8 1442.23 744.453C1438.61 747.435 1434.58 748.925 1430.14 748.925C1425.13 748.925 1420.82 747.34 1417.2 744.168C1412.38 739.664 1409.97 733.638 1409.97 726.09C1409.97 719.175 1412.19 713.435 1416.63 708.868C1420.69 704.744 1425.67 702.683 1431.57 702.683C1434.87 702.683 1438.17 703.381 1441.47 704.776L1445.56 701.636H1451.27ZM1439.66 713.91C1437.44 713.086 1435.31 712.674 1433.28 712.674C1429.86 712.674 1427.04 713.942 1424.82 716.479C1422.6 718.953 1421.49 722.188 1421.49 726.185C1421.49 730.181 1422.47 733.384 1424.43 735.795C1426.46 738.205 1429.16 739.41 1432.52 739.41C1434.81 739.41 1437.18 738.903 1439.66 737.888V713.91ZM1484.11 704.205V736.841V738.269H1488.96V747.974H1485.63L1482.11 744.073H1481.92C1479.76 746.674 1477.07 747.974 1473.83 747.974H1455.47V738.269H1469.83C1470.72 738.269 1471.36 738.015 1471.74 737.508C1472.31 737 1472.59 736.366 1472.59 735.605V704.205H1484.11ZM1463.46 754.92C1465.17 754.92 1466.63 755.522 1467.84 756.728C1469.04 757.933 1469.64 759.392 1469.64 761.105C1469.64 762.817 1469.04 764.276 1467.84 765.481C1466.63 766.687 1465.17 767.289 1463.46 767.289C1461.75 767.289 1460.29 766.687 1459.08 765.481C1457.88 764.276 1457.27 762.817 1457.27 761.105C1457.27 759.392 1457.88 757.933 1459.08 756.728C1460.29 755.522 1461.75 754.92 1463.46 754.92ZM1477.92 754.92C1479.63 754.92 1481.09 755.522 1482.3 756.728C1483.5 757.933 1484.11 759.392 1484.11 761.105C1484.11 762.817 1483.5 764.276 1482.3 765.481C1481.09 766.687 1479.63 767.289 1477.92 767.289C1476.27 767.289 1474.84 766.687 1473.64 765.481C1472.43 764.276 1471.83 762.817 1471.83 761.105C1471.83 759.392 1472.43 757.933 1473.64 756.728C1474.84 755.522 1476.27 754.92 1477.92 754.92ZM1500.83 705.823C1506.85 703.983 1512.34 703.063 1517.29 703.063C1524.96 703.063 1531.15 705.474 1535.84 710.295C1540.09 714.608 1542.22 720.063 1542.22 726.66V736.841V738.269H1545.36V747.974H1543.36L1540.22 744.073H1540.03C1537.87 746.674 1535.18 747.974 1531.94 747.974H1488.17V738.269H1528.23C1529.82 738.269 1530.61 737.476 1530.61 735.89V727.327C1530.61 723.013 1529.15 719.556 1526.23 716.955C1523.38 714.291 1519.6 712.959 1514.91 712.959C1511.8 712.959 1507.11 713.657 1500.83 715.052V705.823ZM1573.31 720.19C1581.81 708.709 1592.31 702.968 1604.8 702.968C1612.42 702.968 1618.69 705.347 1623.64 710.104C1628.15 714.418 1630.4 719.873 1630.4 726.47V735.224C1630.4 735.605 1630.37 736.144 1630.3 736.841C1630.3 737.476 1630.3 737.952 1630.3 738.269H1633.44V747.974H1631.54L1628.4 744.073H1628.11C1626.02 746.674 1623.33 747.974 1620.03 747.974H1544.67V738.269H1561.8L1561.7 704.205H1573.31V720.19ZM1618.79 727.041C1618.73 722.474 1616.98 718.858 1613.56 716.194C1610.64 714.037 1607.12 712.959 1603 712.959C1596.65 712.959 1590.78 715.591 1585.39 720.856C1580.44 724.98 1576.42 730.784 1573.31 738.269H1616.41C1618 738.269 1618.79 737.476 1618.79 735.89V727.041ZM1661.4 679.847V737.508C1661.4 740.172 1660.54 742.455 1658.83 744.358C1656.86 746.769 1654.29 747.974 1651.12 747.974H1632.76V738.269H1647.41C1648.11 738.269 1648.71 738.015 1649.22 737.508C1649.66 737.063 1649.88 736.524 1649.88 735.89V679.847H1661.4ZM1686.15 679.847V745.595L1680.25 750.353H1674.54V679.847H1686.15ZM1726.72 738.269C1724.06 734.526 1722.72 730.022 1722.72 724.757C1722.79 717.843 1725.13 712.388 1729.77 708.392C1733.76 704.903 1738.77 703.127 1744.8 703.063C1751.33 703.063 1756.34 705.062 1759.83 709.058C1762.62 712.039 1764.02 715.909 1764.02 720.666V737.508C1764.02 740.743 1762.81 743.375 1760.4 745.405C1758.5 747.118 1756.28 747.974 1753.74 747.974H1729.38C1727.8 747.974 1727.01 748.767 1727.01 750.353V778.802L1721.11 783.465H1715.4V748.735C1715.4 745.881 1716.35 743.438 1718.25 741.409C1720.22 739.315 1722.53 738.269 1725.2 738.269H1726.72ZM1752.41 720.666C1752.41 718.065 1751.55 716.067 1749.84 714.672C1748.45 713.403 1746.73 712.769 1744.7 712.769C1741.53 712.769 1738.99 713.942 1737.09 716.289C1735.19 718.573 1734.24 721.618 1734.24 725.424C1734.24 729.356 1735.22 732.496 1737.19 734.843C1739.22 737.127 1741.98 738.269 1745.47 738.269H1750.03C1751.62 738.269 1752.41 737.476 1752.41 735.89V720.666ZM1796.09 747.974C1789.12 747.974 1783.63 745.595 1779.63 740.838C1776.27 736.778 1774.59 731.767 1774.59 725.804C1774.59 718.7 1776.59 713.149 1780.58 709.153C1784.77 705.093 1790.13 703.063 1796.66 703.063C1801.42 703.063 1805.55 704.237 1809.03 706.584C1813.6 709.882 1815.88 714.577 1815.88 720.666V738.269H1818.93V747.974H1815.79C1815.35 754.825 1812.94 760.185 1808.56 764.054C1805.51 766.782 1801.87 768.653 1797.62 769.668C1794.63 770.366 1791.72 770.715 1788.86 770.715C1787.91 770.715 1786.55 770.651 1784.77 770.524H1784.49L1779.63 764.53V760.343C1782.23 760.787 1784.68 761.009 1786.96 761.009C1797.36 761.009 1803.04 756.664 1803.99 747.974H1796.09ZM1804.28 720.666C1804.28 718.129 1803.45 716.131 1801.8 714.672C1800.34 713.403 1798.63 712.769 1796.66 712.769C1793.43 712.769 1790.86 713.91 1788.96 716.194C1787.05 718.478 1786.1 721.618 1786.1 725.614C1786.1 729.483 1787.15 732.56 1789.24 734.843C1791.34 737.127 1794.19 738.269 1797.81 738.269H1804.28V720.666ZM1846.86 679.847V736.841V738.269H1851.72V747.974H1848.48L1844.87 744.073H1844.67C1842.52 746.674 1839.82 747.974 1836.59 747.974H1818.22V738.269H1832.88C1833.64 738.269 1834.27 738.015 1834.78 737.508C1835.16 736.873 1835.35 736.334 1835.35 735.89V679.847H1846.86ZM1864.25 720.952C1866.41 714.735 1870.34 710.009 1876.05 706.774C1880.3 704.364 1884.9 703.159 1889.84 703.159C1894.79 703.159 1899.33 704.491 1903.45 707.155C1908.59 710.263 1912.27 714.862 1914.49 720.952L1913.35 723.616C1910.81 724.757 1908.15 726.724 1905.35 729.515C1902.69 732.433 1900.95 735.351 1900.12 738.269H1915.44V747.974H1894.51C1892.73 747.974 1891.11 747.149 1889.65 745.5H1889.18C1887.72 747.149 1886.04 747.974 1884.14 747.974H1851.02V738.269H1878.62C1877.86 735.668 1876.24 732.909 1873.76 729.991C1871.04 726.946 1868.21 724.821 1865.3 723.616L1864.25 720.952ZM1902.31 720.19C1900.79 717.526 1898.73 715.56 1896.12 714.291C1894.16 713.34 1891.97 712.864 1889.56 712.864C1887.02 712.864 1884.61 713.403 1882.33 714.481C1879.79 715.75 1877.82 717.653 1876.43 720.19C1878.59 721.142 1880.87 723.045 1883.28 725.899C1885.94 728.881 1887.91 732.116 1889.18 735.605H1889.56C1890.76 732.052 1892.83 728.659 1895.74 725.424C1898.09 722.823 1900.28 721.078 1902.31 720.19ZM1943.41 679.847V737.508C1943.41 740.172 1942.55 742.455 1940.84 744.358C1938.87 746.769 1936.3 747.974 1933.13 747.974H1914.77V738.269H1929.42C1930.12 738.269 1930.72 738.015 1931.23 737.508C1931.67 737.063 1931.89 736.524 1931.89 735.89V679.847H1943.41ZM1968.16 679.847V745.595L1962.26 750.353H1956.55V679.847H1968.16ZM2010.35 731.418V744.644C2010.35 750.67 2011.84 754.888 2014.82 757.299C2017.87 759.772 2023.07 761.009 2030.42 761.009C2036.83 761.009 2041.46 760.185 2044.32 758.536C2047.81 756.569 2049.8 753.049 2050.31 747.974H2044.41L2039.46 741.884V738.269H2065.73V747.974H2062.11C2061.6 755.903 2058.43 761.866 2052.59 765.862C2048.03 769.097 2042.22 770.715 2035.18 770.715H2025.76C2017.77 770.715 2011.4 768.653 2006.64 764.53C2001.37 760.216 1998.74 753.937 1998.74 745.69V736.08L2004.64 731.418H2010.35ZM2022.91 776.233C2024.62 776.233 2026.08 776.836 2027.29 778.041C2028.49 779.246 2029.09 780.705 2029.09 782.418C2029.09 784.131 2028.49 785.59 2027.29 786.795C2026.08 788 2024.62 788.603 2022.91 788.603C2021.2 788.603 2019.74 788 2018.53 786.795C2017.33 785.59 2016.72 784.131 2016.72 782.418C2016.72 780.705 2017.33 779.246 2018.53 778.041C2019.74 776.836 2021.2 776.233 2022.91 776.233ZM2037.37 776.233C2039.08 776.233 2040.54 776.836 2041.75 778.041C2042.95 779.246 2043.56 780.705 2043.56 782.418C2043.56 784.131 2042.95 785.59 2041.75 786.795C2040.54 788 2039.08 788.603 2037.37 788.603C2035.72 788.603 2034.29 788 2033.09 786.795C2031.88 785.59 2031.28 784.131 2031.28 782.418C2031.28 780.705 2031.88 779.246 2033.09 778.041C2034.29 776.836 2035.72 776.233 2037.37 776.233ZM2094.41 683.272C2096.12 683.272 2097.58 683.875 2098.79 685.08C2099.99 686.285 2100.59 687.744 2100.59 689.457C2100.59 691.106 2099.99 692.534 2098.79 693.739C2097.58 694.944 2096.12 695.547 2094.41 695.547C2092.76 695.547 2091.33 694.944 2090.13 693.739C2088.92 692.534 2088.32 691.106 2088.32 689.457C2088.32 687.744 2088.92 686.285 2090.13 685.08C2091.33 683.875 2092.76 683.272 2094.41 683.272ZM2076.62 738.269C2075.16 736.429 2074.01 734.241 2073.19 731.703C2072.49 729.293 2072.14 726.882 2072.14 724.472C2072.14 718.89 2073.76 714.228 2077 710.485C2081.12 705.537 2086.92 703.063 2094.41 703.063C2099.74 703.063 2104.18 704.491 2107.73 707.345C2111.6 710.644 2113.53 715.084 2113.53 720.666V737.508C2113.53 740.108 2112.68 742.424 2110.96 744.453C2108.93 746.8 2106.37 747.974 2103.26 747.974H2057.49V738.269H2076.62ZM2101.93 720.666C2101.93 718.065 2101.04 715.972 2099.26 714.386C2097.87 713.308 2096.25 712.769 2094.41 712.769C2090.29 712.769 2087.3 714.386 2085.46 717.621C2084.26 719.651 2083.66 722.22 2083.66 725.328C2083.66 729.578 2084.99 732.909 2087.65 735.319C2089.81 737.285 2092.63 738.269 2096.12 738.269H2099.55C2101.13 738.269 2101.93 737.476 2101.93 735.89V720.666ZM2173.5 703.063C2175.21 703.063 2176.67 703.666 2177.88 704.871C2179.08 706.076 2179.68 707.535 2179.68 709.248C2179.68 710.961 2179.08 712.42 2177.88 713.625C2176.67 714.83 2175.21 715.433 2173.5 715.433C2171.85 715.433 2170.42 714.83 2169.22 713.625C2168.01 712.42 2167.41 710.961 2167.41 709.248C2167.41 707.535 2168.01 706.076 2169.22 704.871C2170.42 703.666 2171.85 703.063 2173.5 703.063ZM2205.85 704.205V738.269H2210.61V747.974H2205.75C2205.25 755.459 2202.42 761.168 2197.29 765.101C2192.46 768.843 2186.31 770.715 2178.83 770.715H2169.41C2161.29 770.715 2154.82 768.621 2150 764.435C2144.92 759.994 2142.38 753.746 2142.38 745.69V728.659L2148.28 723.901H2153.99V744.644C2153.99 750.67 2155.48 754.888 2158.46 757.299C2161.51 759.772 2166.74 761.009 2174.16 761.009C2181.33 761.009 2186.38 759.899 2189.29 757.679C2192.59 755.142 2194.24 750.797 2194.24 744.644V704.205H2205.85ZM2239.08 704.205V737.508C2239.08 739.981 2238.25 742.265 2236.6 744.358C2234.51 746.769 2231.91 747.974 2228.8 747.974H2210.44V738.269H2225.09C2225.79 738.269 2226.39 738.015 2226.9 737.508C2227.34 737.063 2227.56 736.524 2227.56 735.89V704.205H2239.08ZM2218.24 754.92C2219.95 754.92 2221.41 755.522 2222.61 756.728C2223.82 757.933 2224.42 759.392 2224.42 761.105C2224.42 762.817 2223.82 764.276 2222.61 765.481C2221.41 766.687 2219.95 767.289 2218.24 767.289C2216.59 767.289 2215.16 766.687 2213.96 765.481C2212.75 764.276 2212.15 762.817 2212.15 761.105C2212.15 759.392 2212.75 757.933 2213.96 756.728C2215.16 755.522 2216.59 754.92 2218.24 754.92ZM2232.8 754.92C2234.51 754.92 2235.94 755.522 2237.08 756.728C2238.28 757.933 2238.89 759.392 2238.89 761.105C2238.89 762.817 2238.28 764.276 2237.08 765.481C2235.94 766.687 2234.51 767.289 2232.8 767.289C2231.08 767.289 2229.62 766.687 2228.42 765.481C2227.21 764.276 2226.61 762.817 2226.61 761.105C2226.61 759.392 2227.21 757.933 2228.42 756.728C2229.62 755.522 2231.08 754.92 2232.8 754.92ZM2272.58 747.974C2265.61 747.974 2260.12 745.595 2256.12 740.838C2252.76 736.778 2251.08 731.767 2251.08 725.804C2251.08 718.7 2253.08 713.149 2257.07 709.153C2261.26 705.093 2266.62 703.063 2273.15 703.063C2277.91 703.063 2282.04 704.237 2285.52 706.584C2290.09 709.882 2292.37 714.577 2292.37 720.666V738.269H2295.42V747.974H2292.28C2291.84 754.825 2289.43 760.185 2285.05 764.054C2282 766.782 2278.36 768.653 2274.11 769.668C2271.12 770.366 2268.21 770.715 2265.35 770.715C2264.4 770.715 2263.04 770.651 2261.26 770.524H2260.98L2256.12 764.53V760.343C2258.72 760.787 2261.17 761.009 2263.45 761.009C2273.85 761.009 2279.53 756.664 2280.48 747.974H2272.58ZM2280.77 720.666C2280.77 718.129 2279.94 716.131 2278.29 714.672C2276.83 713.403 2275.12 712.769 2273.15 712.769C2269.92 712.769 2267.35 713.91 2265.45 716.194C2263.54 718.478 2262.59 721.618 2262.59 725.614C2262.59 729.483 2263.64 732.56 2265.73 734.843C2267.83 737.127 2270.68 738.269 2274.3 738.269H2280.77V720.666ZM2340.1 678.515V689.267L2320.21 701.446C2328.59 704.364 2335.18 709.312 2340 716.289C2344.32 722.506 2346.47 729.388 2346.47 736.937C2346.47 737.063 2346.47 737.285 2346.47 737.603C2346.47 737.92 2346.47 738.142 2346.47 738.269H2349.52V747.974H2347.71L2344.48 744.073H2344.29C2342.07 746.674 2339.37 747.974 2336.2 747.974H2294.71V738.269H2332.49C2334.14 738.269 2334.96 737.444 2334.96 735.795C2334.52 730.403 2332.58 725.455 2329.16 720.952C2323.83 714.291 2316.44 710.485 2306.99 709.534C2306.54 709.534 2306.32 709.28 2306.32 708.772V698.021L2340.1 678.515ZM2358.11 683.272C2359.83 683.272 2361.29 683.875 2362.49 685.08C2363.7 686.285 2364.3 687.744 2364.3 689.457C2364.3 691.106 2363.7 692.534 2362.49 693.739C2361.29 694.944 2359.83 695.547 2358.11 695.547C2356.4 695.547 2354.94 694.944 2353.74 693.739C2352.53 692.534 2351.93 691.106 2351.93 689.457C2351.93 687.744 2352.53 686.285 2353.74 685.08C2354.94 683.875 2356.4 683.272 2358.11 683.272ZM2372.58 683.272C2374.29 683.272 2375.75 683.875 2376.95 685.08C2378.16 686.285 2378.76 687.744 2378.76 689.457C2378.76 691.106 2378.16 692.534 2376.95 693.739C2375.75 694.944 2374.29 695.547 2372.58 695.547C2370.93 695.547 2369.5 694.944 2368.3 693.739C2367.09 692.534 2366.49 691.106 2366.49 689.457C2366.49 687.744 2367.09 686.285 2368.3 685.08C2369.5 683.875 2370.93 683.272 2372.58 683.272ZM2377.53 704.205V736.841V738.269H2382.38V747.974H2379.05L2375.53 744.073H2375.34C2373.18 746.674 2370.48 747.974 2367.25 747.974H2348.89V738.269H2363.25C2364.14 738.269 2364.78 738.015 2365.16 737.508C2365.73 737 2366.01 736.366 2366.01 735.605V704.205H2377.53ZM2410.33 679.847V736.841V738.269H2415.18V747.974H2411.94L2408.33 744.073H2408.14C2405.98 746.674 2403.28 747.974 2400.05 747.974H2381.69V738.269H2396.34C2397.1 738.269 2397.73 738.015 2398.24 737.508C2398.62 736.873 2398.81 736.334 2398.81 735.89V679.847H2410.33ZM2443.13 679.847V737.508C2443.13 740.172 2442.27 742.455 2440.56 744.358C2438.59 746.769 2436.02 747.974 2432.85 747.974H2414.49V738.269H2429.14C2429.84 738.269 2430.44 738.015 2430.95 737.508C2431.39 737.063 2431.61 736.524 2431.61 735.89V679.847H2443.13ZM2537.11 720.19C2545.55 708.709 2556.05 702.968 2568.61 702.968C2576.22 702.968 2582.5 705.379 2587.45 710.2C2591.95 714.513 2594.2 719.937 2594.2 726.47V737.508C2594.2 740.489 2593.12 742.994 2590.97 745.024C2588.87 746.991 2586.53 747.974 2583.93 747.974H2537.11C2536.61 755.776 2533.5 761.675 2527.79 765.672C2523.16 769.034 2517.29 770.715 2510.19 770.715H2500.77C2491.7 770.715 2484.75 768.114 2479.93 762.912C2475.81 758.662 2473.74 752.922 2473.74 745.69V728.659L2479.64 723.901H2485.35V744.644C2485.35 750.67 2486.84 754.888 2489.82 757.299C2492.87 759.772 2498.1 761.009 2505.52 761.009C2512.69 761.009 2517.73 759.899 2520.65 757.679C2523.95 755.142 2525.6 750.797 2525.6 744.644V704.205H2537.21L2537.11 720.19ZM2582.59 727.041C2582.59 723.235 2581.29 720.032 2578.69 717.431C2575.59 714.45 2571.62 712.959 2566.8 712.959C2561.92 712.959 2557.22 714.513 2552.72 717.621C2546.31 721.998 2541.11 728.881 2537.11 738.269H2580.22C2581.8 738.269 2582.59 737.476 2582.59 735.89V727.041ZM2617.58 679.847V735.89C2617.58 736.524 2617.77 737.032 2618.15 737.412C2618.53 737.983 2619.13 738.269 2619.95 738.269H2622.43V747.974H2616.24C2613.64 747.974 2611.36 747.054 2609.39 745.215C2607.11 743.121 2605.97 740.552 2605.97 737.508V679.847H2617.58ZM2651.76 683.272C2653.47 683.272 2654.93 683.875 2656.14 685.08C2657.34 686.285 2657.95 687.744 2657.95 689.457C2657.95 691.106 2657.34 692.534 2656.14 693.739C2654.93 694.944 2653.47 695.547 2651.76 695.547C2650.11 695.547 2648.68 694.944 2647.48 693.739C2646.27 692.534 2645.67 691.106 2645.67 689.457C2645.67 687.744 2646.27 686.285 2647.48 685.08C2648.68 683.875 2650.11 683.272 2651.76 683.272ZM2634.35 705.823C2640.38 703.983 2645.86 703.063 2650.81 703.063C2658.49 703.063 2664.67 705.474 2669.36 710.295C2673.61 714.608 2675.74 720.063 2675.74 726.66V736.841V738.269H2678.88V747.974H2676.88L2673.74 744.073H2673.55C2671.39 746.674 2668.7 747.974 2665.46 747.974H2621.69V738.269H2661.75C2663.34 738.269 2664.13 737.476 2664.13 735.89V727.327C2664.13 723.013 2662.67 719.556 2659.75 716.955C2656.9 714.291 2653.13 712.959 2648.43 712.959C2645.32 712.959 2640.63 713.657 2634.35 715.052V705.823ZM2706.83 679.847V737.508C2706.83 740.172 2705.98 742.455 2704.26 744.358C2702.3 746.769 2699.73 747.974 2696.56 747.974H2678.19V738.269H2692.84C2693.54 738.269 2694.14 738.015 2694.65 737.508C2695.1 737.063 2695.32 736.524 2695.32 735.89V679.847H2706.83ZM2731.59 679.847V745.595L2725.69 750.353H2719.98V679.847H2731.59ZM2783 683.272C2784.72 683.272 2786.17 683.875 2787.38 685.08C2788.59 686.285 2789.19 687.744 2789.19 689.457C2789.19 691.106 2788.59 692.534 2787.38 693.739C2786.17 694.944 2784.72 695.547 2783 695.547C2781.29 695.547 2779.83 694.976 2778.63 693.834C2777.48 692.629 2776.91 691.17 2776.91 689.457C2776.91 687.744 2777.48 686.285 2778.63 685.08C2779.83 683.875 2781.29 683.272 2783 683.272ZM2788.81 704.205V738.269H2793.66V747.974H2788.71C2788.2 755.649 2785.16 761.517 2779.58 765.577C2775.01 768.875 2769.36 770.524 2762.64 770.524C2761.82 770.524 2760.64 770.493 2759.12 770.429L2754.46 764.625V760.534C2756.49 760.851 2758.45 761.009 2760.36 761.009C2771.59 761.009 2777.2 755.554 2777.2 744.644V704.205H2788.81ZM2821.68 704.205V736.841V738.269H2826.53V747.974H2823.2L2819.68 744.073H2819.49C2817.33 746.674 2814.64 747.974 2811.4 747.974H2793.04V738.269H2807.41C2808.3 738.269 2808.93 738.015 2809.31 737.508C2809.88 737 2810.17 736.366 2810.17 735.605V704.205H2821.68ZM2801.03 754.92C2802.75 754.92 2804.2 755.522 2805.41 756.728C2806.61 757.933 2807.22 759.392 2807.22 761.105C2807.22 762.817 2806.61 764.276 2805.41 765.481C2804.2 766.687 2802.75 767.289 2801.03 767.289C2799.32 767.289 2797.86 766.687 2796.66 765.481C2795.45 764.276 2794.85 762.817 2794.85 761.105C2794.85 759.392 2795.45 757.933 2796.66 756.728C2797.86 755.522 2799.32 754.92 2801.03 754.92ZM2815.5 754.92C2817.21 754.92 2818.67 755.522 2819.87 756.728C2821.08 757.933 2821.68 759.392 2821.68 761.105C2821.68 762.817 2821.08 764.276 2819.87 765.481C2818.67 766.687 2817.21 767.289 2815.5 767.289C2813.85 767.289 2812.42 766.687 2811.21 765.481C2810.01 764.276 2809.41 762.817 2809.41 761.105C2809.41 759.392 2810.01 757.933 2811.21 756.728C2812.42 755.522 2813.85 754.92 2815.5 754.92ZM2842.78 738.269C2841.25 734.59 2840.49 730.466 2840.49 725.899C2840.49 718.414 2842.81 712.61 2847.44 708.487C2851.31 704.998 2856.26 703.222 2862.28 703.159C2867.67 703.159 2872.08 704.427 2875.51 706.965C2879.69 710.136 2881.79 714.703 2881.79 720.666V735.89C2881.79 736.461 2881.95 737 2882.26 737.508C2882.77 738.015 2883.34 738.269 2883.98 738.269H2884.83V747.974H2880.65C2877.79 747.974 2875.35 746.959 2873.32 744.929C2870.21 748.862 2866.09 750.828 2860.95 750.828C2855.43 750.828 2850.74 748.799 2846.87 744.739H2846.68L2844.01 747.974H2825.84V738.269H2842.78ZM2870.18 720.666C2870.18 718.319 2869.45 716.416 2867.99 714.957C2866.66 713.498 2864.76 712.769 2862.28 712.769C2859.17 712.769 2856.67 713.974 2854.77 716.384C2852.93 718.795 2852.01 722.03 2852.01 726.09C2852.01 730.53 2852.96 734.146 2854.86 736.937C2856.76 739.728 2859.21 741.123 2862.19 741.123C2864.92 741.123 2867.58 739.823 2870.18 737.222V720.666ZM2893.42 683.272C2895.14 683.272 2896.59 683.875 2897.8 685.08C2899.01 686.285 2899.61 687.744 2899.61 689.457C2899.61 691.106 2899.01 692.534 2897.8 693.739C2896.59 694.944 2895.14 695.547 2893.42 695.547C2891.71 695.547 2890.25 694.944 2889.05 693.739C2887.84 692.534 2887.24 691.106 2887.24 689.457C2887.24 687.744 2887.84 686.285 2889.05 685.08C2890.25 683.875 2891.71 683.272 2893.42 683.272ZM2907.89 683.272C2909.6 683.272 2911.06 683.875 2912.26 685.08C2913.47 686.285 2914.07 687.744 2914.07 689.457C2914.07 691.106 2913.47 692.534 2912.26 693.739C2911.06 694.944 2909.6 695.547 2907.89 695.547C2906.24 695.547 2904.81 694.944 2903.6 693.739C2902.4 692.534 2901.8 691.106 2901.8 689.457C2901.8 687.744 2902.4 686.285 2903.6 685.08C2904.81 683.875 2906.24 683.272 2907.89 683.272ZM2912.83 704.205V736.841V738.269H2917.69V747.974H2914.36L2910.84 744.073H2910.65C2908.49 746.674 2905.79 747.974 2902.56 747.974H2884.19V738.269H2898.56C2899.45 738.269 2900.08 738.015 2900.46 737.508C2901.04 737 2901.32 736.366 2901.32 735.605V704.205H2912.83ZM2945.63 679.847V737.508C2945.63 740.172 2944.78 742.455 2943.07 744.358C2941.1 746.769 2938.53 747.974 2935.36 747.974H2916.99V738.269H2931.65C2932.34 738.269 2932.95 738.015 2933.46 737.508C2933.9 737.063 2934.12 736.524 2934.12 735.89V679.847H2945.63ZM2970.39 679.847V745.595L2964.49 750.353H2958.78V679.847H2970.39ZM3007.82 703.634C3009.98 703.254 3012.48 703.063 3015.34 703.063C3022.63 703.063 3028.53 705.41 3033.03 710.104C3037.03 714.354 3039.03 719.619 3039.03 725.899V735.034C3039.03 736.493 3039 737.571 3038.93 738.269H3041.41V747.974H3040.17L3037.03 744.073H3036.74C3036.24 744.644 3035.7 745.183 3035.13 745.69C3033.22 747.213 3031.1 747.974 3028.75 747.974H2998.21V738.269H3025.04C3026.63 738.269 3027.42 737.476 3027.42 735.89V727.041C3027.42 722.664 3026.09 719.144 3023.42 716.479C3020.95 714.006 3017.37 712.674 3012.67 712.483C3010.51 712.483 3008.9 712.61 3007.82 712.864V703.634ZM3063.88 705.252C3070.73 702.144 3077.68 700.59 3084.72 700.59C3093.79 700.59 3100.64 703.317 3105.27 708.772C3109.27 713.53 3111.27 719.937 3111.27 727.993V735.605C3111.27 735.858 3111.24 736.334 3111.17 737.032C3111.17 737.603 3111.17 738.015 3111.17 738.269H3114.31V747.974H3112.41L3109.18 744.073H3108.98C3108.35 744.771 3107.56 745.5 3106.61 746.261C3104.96 747.403 3103.09 747.974 3100.99 747.974H3077.2C3074.54 747.974 3072.51 747.625 3071.12 746.927H3070.73C3069.34 747.625 3066.99 747.974 3063.69 747.974H3040.67V738.269H3057.79C3056.78 737 3055.95 735.351 3055.32 733.321C3054.75 731.418 3054.46 729.388 3054.46 727.231C3054.46 723.172 3055.51 719.683 3057.6 716.765C3059.25 714.545 3061.35 712.896 3063.88 711.817V705.252ZM3099.66 729.515C3099.66 722.474 3098.11 717.368 3095 714.196C3092.08 711.278 3087.67 709.819 3081.77 709.819C3079.17 709.819 3076.41 710.104 3073.49 710.675C3078.06 711.246 3081.65 713.276 3084.25 716.765C3086.34 719.683 3087.39 723.172 3087.39 727.231C3087.39 729.261 3087.13 731.196 3086.62 733.035C3085.99 735.192 3085.17 736.937 3084.15 738.269H3097.19C3098.01 738.269 3098.61 738.015 3098.99 737.508C3099.44 737.063 3099.66 736.524 3099.66 735.89V729.515ZM3070.83 737.127C3072.92 736.937 3074.6 735.985 3075.87 734.272C3077.14 732.496 3077.78 730.276 3077.78 727.612C3077.78 724.567 3077.05 722.22 3075.59 720.571C3074.32 719.112 3072.73 718.382 3070.83 718.382C3068.99 718.382 3067.4 719.049 3066.07 720.381C3064.55 722.093 3063.79 724.504 3063.79 727.612C3063.85 730.34 3064.52 732.56 3065.79 734.272C3067.06 735.985 3068.74 736.937 3070.83 737.127ZM3126.84 720.952C3128.99 714.735 3132.93 710.009 3138.64 706.774C3142.89 704.364 3147.48 703.159 3152.43 703.159C3157.38 703.159 3161.92 704.491 3166.04 707.155C3171.18 710.263 3174.86 714.862 3177.08 720.952L3175.93 723.616C3173.4 724.757 3170.73 726.724 3167.94 729.515C3165.28 732.433 3163.53 735.351 3162.71 738.269H3178.03V747.974H3157.09C3155.32 747.974 3153.7 747.149 3152.24 745.5H3151.77C3150.31 747.149 3148.63 747.974 3146.72 747.974H3113.61V738.269H3141.2C3140.44 735.668 3138.83 732.909 3136.35 729.991C3133.62 726.946 3130.8 724.821 3127.88 723.616L3126.84 720.952ZM3164.9 720.19C3163.37 717.526 3161.31 715.56 3158.71 714.291C3156.75 713.34 3154.56 712.864 3152.15 712.864C3149.61 712.864 3147.2 713.403 3144.92 714.481C3142.38 715.75 3140.41 717.653 3139.02 720.19C3141.17 721.142 3143.46 723.045 3145.87 725.899C3148.53 728.881 3150.5 732.116 3151.77 735.605H3152.15C3153.35 732.052 3155.41 728.659 3158.33 725.424C3160.68 722.823 3162.87 721.078 3164.9 720.19ZM3194.39 720.666C3194.39 714.64 3196.48 710.073 3200.67 706.965C3203.96 704.427 3208.47 703.159 3214.18 703.159C3219.76 703.159 3224.48 704.808 3228.35 708.106C3233.24 712.293 3235.68 718.224 3235.68 725.899C3235.68 733.131 3233.75 739.125 3229.88 743.883C3226.13 748.513 3221.28 750.828 3215.32 750.828C3210.05 750.828 3205.9 748.862 3202.85 744.929C3200.82 746.959 3198.35 747.974 3195.43 747.974H3177.26V738.269H3191.91C3192.61 738.269 3193.21 738.015 3193.72 737.508C3194.16 737.063 3194.39 736.524 3194.39 735.89V720.666ZM3205.9 737.222C3208.25 739.759 3210.94 741.028 3213.99 741.028C3216.97 741.028 3219.41 739.728 3221.31 737.127C3223.22 734.463 3224.17 731.037 3224.17 726.851C3224.17 722.284 3223.12 718.7 3221.03 716.099C3219.12 713.879 3216.65 712.769 3213.61 712.769C3211.32 712.769 3209.51 713.498 3208.18 714.957C3206.66 716.353 3205.9 718.256 3205.9 720.666V737.222Z" fill="#005D97"/>
<path d="M1429.24 804.827V848.915H1420.19V804.827H1429.24ZM1437.48 816.28H1445.98V820.899C1448.28 817.368 1451.52 815.603 1455.71 815.603C1459.45 815.603 1462.28 816.711 1464.21 818.928C1465.85 820.899 1466.67 823.567 1466.67 826.933V848.915H1458.24V828.657C1458.24 824.757 1456.41 822.807 1452.76 822.807C1450.7 822.807 1449.06 823.403 1447.83 824.593C1446.6 825.742 1445.98 827.282 1445.98 829.211V848.915H1437.48V816.28ZM1501.62 825.886H1493C1492.96 824.573 1492.49 823.649 1491.58 823.115C1490.68 822.541 1489.12 822.253 1486.9 822.253C1483.66 822.253 1482.04 823.197 1482.04 825.086C1482.04 826.194 1483.02 827.015 1484.99 827.549L1495.71 830.566C1499.98 831.756 1502.11 834.466 1502.11 838.694C1502.11 842.019 1500.82 844.708 1498.23 846.76C1495.81 848.648 1492.32 849.592 1487.77 849.592C1482.18 849.592 1478.18 848.771 1475.76 847.129C1473.38 845.57 1472.11 843.045 1471.94 839.556H1480.38C1480.62 840.91 1481.2 841.814 1482.1 842.265C1483.04 842.717 1484.77 842.942 1487.27 842.942C1491.5 842.942 1493.62 841.937 1493.62 839.925C1493.62 838.735 1492.67 837.852 1490.78 837.277L1480.68 834.199C1478.1 833.419 1476.33 832.516 1475.39 831.489C1474.16 830.217 1473.54 828.493 1473.54 826.317C1473.54 822.746 1474.9 819.995 1477.61 818.066C1479.99 816.424 1483.11 815.603 1486.97 815.603C1491.64 815.603 1495.34 816.65 1498.05 818.743C1500.39 820.591 1501.58 822.972 1501.62 825.886ZM1523.53 816.28V821.884H1517.81V840.048C1517.81 841.239 1518.01 842.06 1518.42 842.511C1518.88 842.963 1519.68 843.189 1520.83 843.189C1521.77 843.189 1522.98 842.819 1524.46 842.08C1524.58 841.998 1524.68 841.937 1524.77 841.896L1525.75 847.684C1523.17 848.956 1520.46 849.592 1517.62 849.592C1512.08 849.592 1509.31 847.047 1509.31 841.957V821.884H1505.12V816.28H1509.31V810.862L1517.81 805.997V816.28H1523.53ZM1539.85 816.28V848.915H1531.35V816.28H1539.85ZM1535.54 805.074C1536.65 805.074 1537.57 805.464 1538.31 806.244C1539.09 807.024 1539.48 807.968 1539.48 809.076C1539.48 810.184 1539.09 811.129 1538.31 811.909C1537.57 812.647 1536.65 813.017 1535.54 813.017C1534.43 813.017 1533.49 812.647 1532.71 811.909C1531.93 811.129 1531.54 810.184 1531.54 809.076C1531.54 807.968 1531.93 807.024 1532.71 806.244C1533.49 805.464 1534.43 805.074 1535.54 805.074ZM1563.52 816.28V821.884H1557.8V840.048C1557.8 841.239 1558 842.06 1558.41 842.511C1558.86 842.963 1559.66 843.189 1560.81 843.189C1561.76 843.189 1562.97 842.819 1564.45 842.08C1564.57 841.998 1564.67 841.937 1564.75 841.896L1565.74 847.684C1563.15 848.956 1560.44 849.592 1557.61 849.592C1552.07 849.592 1549.3 847.047 1549.3 841.957V821.884H1545.11V816.28H1549.3V810.862L1557.8 805.997V816.28H1563.52ZM1600.1 848.915H1591.66V844.297C1589.36 847.827 1586.1 849.592 1581.87 849.592C1578.13 849.592 1575.3 848.484 1573.37 846.267C1571.73 844.338 1570.91 841.69 1570.91 838.324V816.28H1579.41V836.539C1579.41 840.438 1581.21 842.388 1584.83 842.388C1586.88 842.388 1588.52 841.814 1589.75 840.664C1591.02 839.515 1591.66 837.955 1591.66 835.984V816.28H1600.1V848.915ZM1623.59 816.28V821.884H1617.87V840.048C1617.87 841.239 1618.07 842.06 1618.48 842.511C1618.93 842.963 1619.74 843.189 1620.88 843.189C1621.83 843.189 1623.04 842.819 1624.52 842.08C1624.64 841.998 1624.74 841.937 1624.83 841.896L1625.81 847.684C1623.22 848.956 1620.52 849.592 1617.68 849.592C1612.14 849.592 1609.37 847.047 1609.37 841.957V821.884H1605.18V816.28H1609.37V810.862L1617.87 805.997V816.28H1623.59ZM1671.78 804.827V848.915H1663.28V845.282C1661.31 848.156 1658.34 849.592 1654.35 849.592C1650.04 849.592 1646.58 847.786 1643.95 844.174C1641.69 841.095 1640.56 837.257 1640.56 832.659C1640.56 827.2 1642 822.889 1644.87 819.729C1647.38 816.978 1650.52 815.603 1654.29 815.603C1658.28 815.603 1661.27 817.122 1663.28 820.16V804.827H1671.78ZM1656.2 822.561C1654.07 822.561 1652.34 823.485 1651.03 825.332C1649.72 827.179 1649.06 829.601 1649.06 832.598C1649.06 835.553 1649.7 837.955 1650.97 839.802C1652.28 841.608 1654.03 842.511 1656.2 842.511C1658.38 842.511 1660.1 841.608 1661.37 839.802C1662.69 837.996 1663.34 835.594 1663.34 832.598C1663.34 829.56 1662.69 827.138 1661.37 825.332C1660.06 823.485 1658.34 822.561 1656.2 822.561ZM1708.14 834.814H1686.22C1686.34 837.442 1686.75 839.309 1687.45 840.418C1688.64 842.224 1690.51 843.127 1693.06 843.127C1696.22 843.127 1698.33 841.814 1699.4 839.186H1707.77C1706.83 842.388 1704.98 844.933 1702.23 846.822C1699.52 848.669 1696.34 849.592 1692.69 849.592C1687.72 849.592 1683.9 847.93 1681.23 844.605C1678.89 841.69 1677.72 837.852 1677.72 833.09C1677.72 827.302 1679.24 822.828 1682.28 819.667C1684.95 816.958 1688.46 815.603 1692.81 815.603C1696.13 815.603 1699.05 816.424 1701.55 818.066C1704.06 819.708 1705.84 822.007 1706.91 824.962C1707.77 827.261 1708.2 830.032 1708.2 833.275C1708.2 833.686 1708.18 834.199 1708.14 834.814ZM1699.34 829.211C1698.93 824.449 1696.73 822.068 1692.75 822.068C1689.01 822.068 1686.88 824.449 1686.34 829.211H1699.34ZM1740.54 816.958V822.561H1735.62V848.915H1727.12V822.561H1722.5V816.958H1727.12V813.017C1727.12 807.557 1729.87 804.827 1735.37 804.827C1736.68 804.827 1738.32 804.889 1740.3 805.012V811.354C1739.47 811.231 1738.67 811.17 1737.89 811.17C1736.38 811.17 1735.62 812.032 1735.62 813.756V816.958H1740.54ZM1760.01 815.603C1765.39 815.603 1769.51 817.327 1772.38 820.775C1774.89 823.731 1776.14 827.672 1776.14 832.598C1776.14 838.263 1774.52 842.614 1771.28 845.652C1768.44 848.279 1764.69 849.592 1760.01 849.592C1754.63 849.592 1750.51 847.889 1747.63 844.482C1745.13 841.485 1743.88 837.524 1743.88 832.598C1743.88 826.974 1745.5 822.643 1748.74 819.605C1751.57 816.937 1755.33 815.603 1760.01 815.603ZM1760.01 822.438C1757.71 822.438 1755.86 823.382 1754.47 825.27C1753.07 827.118 1752.37 829.56 1752.37 832.598C1752.37 835.882 1753.15 838.468 1754.71 840.356C1756.11 841.957 1757.87 842.758 1760.01 842.758C1762.31 842.758 1764.15 841.834 1765.55 839.987C1766.99 838.098 1767.71 835.635 1767.71 832.598C1767.71 829.355 1766.9 826.789 1765.3 824.901C1763.91 823.259 1762.14 822.438 1760.01 822.438ZM1782.4 816.28H1790.9V822.499C1791.97 817.902 1795 815.603 1800.01 815.603C1800.79 815.603 1801.35 815.603 1801.67 815.603L1801.74 823.977C1800.71 823.772 1799.64 823.669 1798.53 823.669C1795.74 823.669 1793.81 824.183 1792.75 825.209C1791.51 826.358 1790.9 828.431 1790.9 831.428V848.915H1782.4V816.28ZM1805.91 816.28H1814.35V820.221C1816.85 817.142 1819.83 815.603 1823.28 815.603C1827.5 815.603 1830.46 817.204 1832.14 820.406C1834.61 817.204 1837.79 815.603 1841.69 815.603C1844.97 815.603 1847.52 816.506 1849.32 818.312C1851.17 820.078 1852.09 822.541 1852.09 825.701V848.915H1843.66V827.056C1843.66 824.224 1842.12 822.807 1839.04 822.807C1837.23 822.807 1835.82 823.382 1834.79 824.531C1833.76 825.64 1833.25 827.2 1833.25 829.211V848.915H1824.75V827.056C1824.75 824.224 1823.24 822.807 1820.2 822.807C1818.39 822.807 1816.98 823.382 1815.95 824.531C1814.92 825.64 1814.41 827.2 1814.41 829.211V848.915H1805.91V816.28ZM1887.8 846.76V848.915H1878.57C1877.95 848.135 1877.62 847.027 1877.58 845.59C1875.32 848.258 1872.04 849.592 1867.73 849.592C1864.57 849.592 1862.02 848.628 1860.1 846.698C1858.54 845.139 1857.76 842.983 1857.76 840.233C1857.76 836.128 1859.4 833.214 1862.68 831.489C1864.08 830.751 1866.85 830.012 1870.99 829.273L1877.64 828.041L1877.58 825.701C1877.54 823.526 1875.9 822.438 1872.66 822.438C1870.56 822.438 1869.09 822.766 1868.22 823.423C1867.4 824.039 1866.89 825.188 1866.68 826.871H1858.56C1859.05 819.359 1863.69 815.603 1872.47 815.603C1877.32 815.603 1880.8 816.465 1882.94 818.189C1884.87 819.831 1885.83 822.315 1885.83 825.64V843.866C1885.83 845.344 1886.49 846.308 1887.8 846.76ZM1877.64 833.152L1871.42 834.568C1869.66 834.979 1868.35 835.574 1867.48 836.354C1866.66 837.134 1866.25 838.098 1866.25 839.248C1866.25 841.588 1867.77 842.758 1870.81 842.758C1875.2 842.758 1877.46 840.356 1877.58 835.553L1877.64 833.152ZM1908.98 816.28V821.884H1903.25V840.048C1903.25 841.239 1903.46 842.06 1903.87 842.511C1904.32 842.963 1905.12 843.189 1906.27 843.189C1907.21 843.189 1908.43 842.819 1909.9 842.08C1910.03 841.998 1910.13 841.937 1910.21 841.896L1911.2 847.684C1908.61 848.956 1905.9 849.592 1903.07 849.592C1897.53 849.592 1894.76 847.047 1894.76 841.957V821.884H1890.57V816.28H1894.76V810.862L1903.25 805.997V816.28H1908.98ZM1925.3 816.28V848.915H1916.8V816.28H1925.3ZM1920.99 805.074C1922.09 805.074 1923.02 805.464 1923.76 806.244C1924.54 807.024 1924.93 807.968 1924.93 809.076C1924.93 810.184 1924.54 811.129 1923.76 811.909C1923.02 812.647 1922.09 813.017 1920.99 813.017C1919.88 813.017 1918.93 812.647 1918.15 811.909C1917.37 811.129 1916.98 810.184 1916.98 809.076C1916.98 807.968 1917.37 807.024 1918.15 806.244C1918.93 805.464 1919.88 805.074 1920.99 805.074ZM1947.92 815.603C1953.3 815.603 1957.42 817.327 1960.3 820.775C1962.8 823.731 1964.05 827.672 1964.05 832.598C1964.05 838.263 1962.43 842.614 1959.19 845.652C1956.36 848.279 1952.6 849.592 1947.92 849.592C1942.54 849.592 1938.42 847.889 1935.54 844.482C1933.04 841.485 1931.79 837.524 1931.79 832.598C1931.79 826.974 1933.41 822.643 1936.65 819.605C1939.48 816.937 1943.24 815.603 1947.92 815.603ZM1947.92 822.438C1945.62 822.438 1943.77 823.382 1942.38 825.27C1940.98 827.118 1940.29 829.56 1940.29 832.598C1940.29 835.882 1941.07 838.468 1942.62 840.356C1944.02 841.957 1945.79 842.758 1947.92 842.758C1950.22 842.758 1952.07 841.834 1953.46 839.987C1954.9 838.098 1955.62 835.635 1955.62 832.598C1955.62 829.355 1954.82 826.789 1953.22 824.901C1951.82 823.259 1950.05 822.438 1947.92 822.438ZM1970.31 816.28H1978.81V820.899C1981.11 817.368 1984.35 815.603 1988.54 815.603C1992.27 815.603 1995.11 816.711 1997.04 818.928C1998.68 820.899 1999.5 823.567 1999.5 826.933V848.915H1991.06V828.657C1991.06 824.757 1989.24 822.807 1985.58 822.807C1983.53 822.807 1981.89 823.403 1980.66 824.593C1979.43 825.742 1978.81 827.282 1978.81 829.211V848.915H1970.31V816.28ZM2047.78 804.827V848.915H2039.29V845.282C2037.32 848.156 2034.34 849.592 2030.36 849.592C2026.05 849.592 2022.58 847.786 2019.95 844.174C2017.7 841.095 2016.57 837.257 2016.57 832.659C2016.57 827.2 2018 822.889 2020.88 819.729C2023.38 816.978 2026.52 815.603 2030.3 815.603C2034.28 815.603 2037.28 817.122 2039.29 820.16V804.827H2047.78ZM2032.21 822.561C2030.07 822.561 2028.35 823.485 2027.03 825.332C2025.72 827.179 2025.06 829.601 2025.06 832.598C2025.06 835.553 2025.7 837.955 2026.97 839.802C2028.29 841.608 2030.03 842.511 2032.21 842.511C2034.38 842.511 2036.11 841.608 2037.38 839.802C2038.69 837.996 2039.35 835.594 2039.35 832.598C2039.35 829.56 2038.69 827.138 2037.38 825.332C2036.07 823.485 2034.34 822.561 2032.21 822.561ZM2062.47 804.827V816.28L2059.27 818.867H2056.19V804.827H2062.47ZM2098.94 834.814H2077.02C2077.14 837.442 2077.55 839.309 2078.25 840.418C2079.44 842.224 2081.31 843.127 2083.85 843.127C2087.01 843.127 2089.13 841.814 2090.19 839.186H2098.57C2097.62 842.388 2095.78 844.933 2093.03 846.822C2090.32 848.669 2087.14 849.592 2083.48 849.592C2078.52 849.592 2074.7 847.93 2072.03 844.605C2069.69 841.69 2068.52 837.852 2068.52 833.09C2068.52 827.302 2070.04 822.828 2073.08 819.667C2075.75 816.958 2079.25 815.603 2083.61 815.603C2086.93 815.603 2089.85 816.424 2092.35 818.066C2094.85 819.708 2096.64 822.007 2097.71 824.962C2098.57 827.261 2099 830.032 2099 833.275C2099 833.686 2098.98 834.199 2098.94 834.814ZM2090.13 829.211C2089.72 824.449 2087.53 822.068 2083.54 822.068C2079.81 822.068 2077.67 824.449 2077.14 829.211H2090.13ZM2122.43 832.475L2133.4 848.915H2123.24L2117.69 838.755L2112.15 848.915H2101.99L2112.89 832.475L2102.24 816.28H2112.4L2117.69 826.132L2122.99 816.28H2133.15L2122.43 832.475ZM2166.03 828.226H2157.96C2157.47 826.091 2156.75 824.593 2155.81 823.731C2154.9 822.869 2153.61 822.438 2151.93 822.438C2149.38 822.438 2147.62 823.341 2146.63 825.147C2145.56 827.241 2145.03 829.806 2145.03 832.844C2145.03 835.923 2145.62 838.365 2146.82 840.172C2148.05 841.937 2149.73 842.819 2151.86 842.819C2153.55 842.819 2154.84 842.388 2155.74 841.526C2156.69 840.623 2157.43 839.145 2157.96 837.093H2166.03C2165.62 841.198 2163.97 844.379 2161.1 846.637C2158.6 848.648 2155.5 849.654 2151.8 849.654C2146.63 849.654 2142.71 847.992 2140.04 844.666C2137.7 841.793 2136.53 837.914 2136.53 833.029C2136.53 827.118 2138.07 822.643 2141.15 819.605C2143.82 816.937 2147.43 815.603 2151.99 815.603C2156.34 815.603 2159.79 816.855 2162.33 819.359C2164.51 821.576 2165.74 824.531 2166.03 828.226ZM2200.32 834.814H2178.4C2178.52 837.442 2178.93 839.309 2179.63 840.418C2180.82 842.224 2182.69 843.127 2185.23 843.127C2188.4 843.127 2190.51 841.814 2191.58 839.186H2199.95C2199.01 842.388 2197.16 844.933 2194.41 846.822C2191.7 848.669 2188.52 849.592 2184.87 849.592C2179.9 849.592 2176.08 847.93 2173.41 844.605C2171.07 841.69 2169.9 837.852 2169.9 833.09C2169.9 827.302 2171.42 822.828 2174.46 819.667C2177.13 816.958 2180.64 815.603 2184.99 815.603C2188.31 815.603 2191.23 816.424 2193.73 818.066C2196.24 819.708 2198.02 822.007 2199.09 824.962C2199.95 827.261 2200.38 830.032 2200.38 833.275C2200.38 833.686 2200.36 834.199 2200.32 834.814ZM2191.52 829.211C2191.1 824.449 2188.91 822.068 2184.93 822.068C2181.19 822.068 2179.06 824.449 2178.52 829.211H2191.52ZM2214.95 804.827V848.915H2206.45V804.827H2214.95ZM2231.79 804.827V848.915H2223.29V804.827H2231.79ZM2268.39 834.814H2246.47C2246.59 837.442 2247 839.309 2247.7 840.418C2248.89 842.224 2250.76 843.127 2253.3 843.127C2256.46 843.127 2258.58 841.814 2259.65 839.186H2268.02C2267.08 842.388 2265.23 844.933 2262.48 846.822C2259.77 848.669 2256.59 849.592 2252.93 849.592C2247.97 849.592 2244.15 847.93 2241.48 844.605C2239.14 841.69 2237.97 837.852 2237.97 833.09C2237.97 827.302 2239.49 822.828 2242.53 819.667C2245.2 816.958 2248.71 815.603 2253.06 815.603C2256.38 815.603 2259.3 816.424 2261.8 818.066C2264.31 819.708 2266.09 822.007 2267.16 824.962C2268.02 827.261 2268.45 830.032 2268.45 833.275C2268.45 833.686 2268.43 834.199 2268.39 834.814ZM2259.58 829.211C2259.17 824.449 2256.98 822.068 2253 822.068C2249.26 822.068 2247.13 824.449 2246.59 829.211H2259.58ZM2274.4 816.28H2282.9V820.899C2285.2 817.368 2288.44 815.603 2292.63 815.603C2296.36 815.603 2299.19 816.711 2301.12 818.928C2302.76 820.899 2303.59 823.567 2303.59 826.933V848.915H2295.15V828.657C2295.15 824.757 2293.32 822.807 2289.67 822.807C2287.62 822.807 2285.98 823.403 2284.74 824.593C2283.51 825.742 2282.9 827.282 2282.9 829.211V848.915H2274.4V816.28ZM2338.97 828.226H2330.9C2330.41 826.091 2329.69 824.593 2328.74 823.731C2327.84 822.869 2326.55 822.438 2324.87 822.438C2322.32 822.438 2320.55 823.341 2319.57 825.147C2318.5 827.241 2317.97 829.806 2317.97 832.844C2317.97 835.923 2318.56 838.365 2319.75 840.172C2320.99 841.937 2322.67 842.819 2324.8 842.819C2326.49 842.819 2327.78 842.388 2328.68 841.526C2329.63 840.623 2330.37 839.145 2330.9 837.093H2338.97C2338.56 841.198 2336.91 844.379 2334.04 846.637C2331.54 848.648 2328.44 849.654 2324.74 849.654C2319.57 849.654 2315.65 847.992 2312.98 844.666C2310.64 841.793 2309.47 837.914 2309.47 833.029C2309.47 827.118 2311.01 822.643 2314.09 819.605C2316.76 816.937 2320.37 815.603 2324.93 815.603C2329.28 815.603 2332.73 816.855 2335.27 819.359C2337.45 821.576 2338.68 824.531 2338.97 828.226ZM2373.26 834.814H2351.34C2351.46 837.442 2351.87 839.309 2352.57 840.418C2353.76 842.224 2355.63 843.127 2358.17 843.127C2361.33 843.127 2363.45 841.814 2364.52 839.186H2372.89C2371.95 842.388 2370.1 844.933 2367.35 846.822C2364.64 848.669 2361.46 849.592 2357.8 849.592C2352.84 849.592 2349.02 847.93 2346.35 844.605C2344.01 841.69 2342.84 837.852 2342.84 833.09C2342.84 827.302 2344.36 822.828 2347.4 819.667C2350.07 816.958 2353.58 815.603 2357.93 815.603C2361.25 815.603 2364.17 816.424 2366.67 818.066C2369.18 819.708 2370.96 822.007 2372.03 824.962C2372.89 827.261 2373.32 830.032 2373.32 833.275C2373.32 833.686 2373.3 834.199 2373.26 834.814ZM2364.45 829.211C2364.04 824.449 2361.85 822.068 2357.87 822.068C2354.13 822.068 2352 824.449 2351.46 829.211H2364.45ZM2419.76 804.827V848.915H2411.26V845.282C2409.29 848.156 2406.32 849.592 2402.33 849.592C2398.02 849.592 2394.56 847.786 2391.93 844.174C2389.67 841.095 2388.54 837.257 2388.54 832.659C2388.54 827.2 2389.98 822.889 2392.85 819.729C2395.36 816.978 2398.5 815.603 2402.27 815.603C2406.25 815.603 2409.25 817.122 2411.26 820.16V804.827H2419.76ZM2404.18 822.561C2402.05 822.561 2400.32 823.485 2399.01 825.332C2397.7 827.179 2397.04 829.601 2397.04 832.598C2397.04 835.553 2397.68 837.955 2398.95 839.802C2400.26 841.608 2402.01 842.511 2404.18 842.511C2406.36 842.511 2408.08 841.608 2409.35 839.802C2410.67 837.996 2411.32 835.594 2411.32 832.598C2411.32 829.56 2410.67 827.138 2409.35 825.332C2408.04 823.485 2406.32 822.561 2404.18 822.561ZM2456.12 834.814H2434.2C2434.32 837.442 2434.73 839.309 2435.43 840.418C2436.62 842.224 2438.49 843.127 2441.04 843.127C2444.2 843.127 2446.31 841.814 2447.38 839.186H2455.75C2454.81 842.388 2452.96 844.933 2450.21 846.822C2447.5 848.669 2444.32 849.592 2440.67 849.592C2435.7 849.592 2431.88 847.93 2429.21 844.605C2426.87 841.69 2425.7 837.852 2425.7 833.09C2425.7 827.302 2427.22 822.828 2430.26 819.667C2432.93 816.958 2436.44 815.603 2440.79 815.603C2444.11 815.603 2447.03 816.424 2449.53 818.066C2452.04 819.708 2453.82 822.007 2454.89 824.962C2455.75 827.261 2456.18 830.032 2456.18 833.275C2456.18 833.686 2456.16 834.199 2456.12 834.814ZM2447.32 829.211C2446.91 824.449 2444.71 822.068 2440.73 822.068C2436.99 822.068 2434.86 824.449 2434.32 829.211H2447.32ZM2489.29 825.886H2480.66C2480.62 824.573 2480.15 823.649 2479.25 823.115C2478.35 822.541 2476.79 822.253 2474.57 822.253C2471.33 822.253 2469.7 823.197 2469.7 825.086C2469.7 826.194 2470.69 827.015 2472.66 827.549L2483.37 830.566C2487.64 831.756 2489.78 834.466 2489.78 838.694C2489.78 842.019 2488.48 844.708 2485.9 846.76C2483.48 848.648 2479.99 849.592 2475.43 849.592C2469.85 849.592 2465.85 848.771 2463.42 847.129C2461.04 845.57 2459.77 843.045 2459.61 839.556H2468.04C2468.29 840.91 2468.86 841.814 2469.77 842.265C2470.71 842.717 2472.43 842.942 2474.94 842.942C2479.17 842.942 2481.28 841.937 2481.28 839.925C2481.28 838.735 2480.34 837.852 2478.45 837.277L2468.35 834.199C2465.76 833.419 2464 832.516 2463.05 831.489C2461.82 830.217 2461.21 828.493 2461.21 826.317C2461.21 822.746 2462.56 819.995 2465.27 818.066C2467.65 816.424 2470.77 815.603 2474.63 815.603C2479.31 815.603 2483 816.65 2485.71 818.743C2488.05 820.591 2489.24 822.972 2489.29 825.886ZM2534.2 825.886H2525.58C2525.54 824.573 2525.07 823.649 2524.17 823.115C2523.26 822.541 2521.7 822.253 2519.49 822.253C2516.24 822.253 2514.62 823.197 2514.62 825.086C2514.62 826.194 2515.61 827.015 2517.58 827.549L2528.29 830.566C2532.56 831.756 2534.7 834.466 2534.7 838.694C2534.7 842.019 2533.4 844.708 2530.82 846.76C2528.4 848.648 2524.91 849.592 2520.35 849.592C2514.77 849.592 2510.76 848.771 2508.34 847.129C2505.96 845.57 2504.69 843.045 2504.52 839.556H2512.96C2513.21 840.91 2513.78 841.814 2514.68 842.265C2515.63 842.717 2517.35 842.942 2519.86 842.942C2524.08 842.942 2526.2 841.937 2526.2 839.925C2526.2 838.735 2525.25 837.852 2523.37 837.277L2513.27 834.199C2510.68 833.419 2508.92 832.516 2507.97 831.489C2506.74 830.217 2506.13 828.493 2506.13 826.317C2506.13 822.746 2507.48 819.995 2510.19 818.066C2512.57 816.424 2515.69 815.603 2519.55 815.603C2524.23 815.603 2527.92 816.65 2530.63 818.743C2532.97 820.591 2534.16 822.972 2534.2 825.886ZM2568.25 828.226H2560.18C2559.69 826.091 2558.97 824.593 2558.03 823.731C2557.12 822.869 2555.83 822.438 2554.15 822.438C2551.6 822.438 2549.84 823.341 2548.85 825.147C2547.79 827.241 2547.25 829.806 2547.25 832.844C2547.25 835.923 2547.85 838.365 2549.04 840.172C2550.27 841.937 2551.95 842.819 2554.09 842.819C2555.77 842.819 2557.06 842.388 2557.97 841.526C2558.91 840.623 2559.65 839.145 2560.18 837.093H2568.25C2567.84 841.198 2566.2 844.379 2563.32 846.637C2560.82 848.648 2557.72 849.654 2554.02 849.654C2548.85 849.654 2544.93 847.992 2542.26 844.666C2539.92 841.793 2538.75 837.914 2538.75 833.029C2538.75 827.118 2540.29 822.643 2543.37 819.605C2546.04 816.937 2549.65 815.603 2554.21 815.603C2558.56 815.603 2562.01 816.855 2564.55 819.359C2566.73 821.576 2567.96 824.531 2568.25 828.226ZM2582.78 816.28V848.915H2574.28V816.28H2582.78ZM2578.47 805.074C2579.57 805.074 2580.5 805.464 2581.24 806.244C2582.02 807.024 2582.41 807.968 2582.41 809.076C2582.41 810.184 2582.02 811.129 2581.24 811.909C2580.5 812.647 2579.57 813.017 2578.47 813.017C2577.36 813.017 2576.41 812.647 2575.63 811.909C2574.85 811.129 2574.46 810.184 2574.46 809.076C2574.46 807.968 2574.85 807.024 2575.63 806.244C2576.41 805.464 2577.36 805.074 2578.47 805.074ZM2619.38 834.814H2597.46C2597.58 837.442 2597.99 839.309 2598.69 840.418C2599.88 842.224 2601.75 843.127 2604.29 843.127C2607.45 843.127 2609.57 841.814 2610.64 839.186H2619.01C2618.07 842.388 2616.22 844.933 2613.47 846.822C2610.76 848.669 2607.58 849.592 2603.92 849.592C2598.96 849.592 2595.14 847.93 2592.47 844.605C2590.13 841.69 2588.96 837.852 2588.96 833.09C2588.96 827.302 2590.48 822.828 2593.52 819.667C2596.19 816.958 2599.7 815.603 2604.05 815.603C2607.37 815.603 2610.29 816.424 2612.79 818.066C2615.29 819.708 2617.08 822.007 2618.15 824.962C2619.01 827.261 2619.44 830.032 2619.44 833.275C2619.44 833.686 2619.42 834.199 2619.38 834.814ZM2610.57 829.211C2610.16 824.449 2607.97 822.068 2603.99 822.068C2600.25 822.068 2598.12 824.449 2597.58 829.211H2610.57ZM2625.39 816.28H2633.89V820.899C2636.18 817.368 2639.43 815.603 2643.61 815.603C2647.35 815.603 2650.18 816.711 2652.11 818.928C2653.75 820.899 2654.57 823.567 2654.57 826.933V848.915H2646.14V828.657C2646.14 824.757 2644.31 822.807 2640.66 822.807C2638.61 822.807 2636.96 823.403 2635.73 824.593C2634.5 825.742 2633.89 827.282 2633.89 829.211V848.915H2625.39V816.28ZM2689.96 828.226H2681.89C2681.4 826.091 2680.68 824.593 2679.73 823.731C2678.83 822.869 2677.54 822.438 2675.85 822.438C2673.31 822.438 2671.54 823.341 2670.56 825.147C2669.49 827.241 2668.96 829.806 2668.96 832.844C2668.96 835.923 2669.55 838.365 2670.74 840.172C2671.98 841.937 2673.66 842.819 2675.79 842.819C2677.48 842.819 2678.77 842.388 2679.67 841.526C2680.62 840.623 2681.36 839.145 2681.89 837.093H2689.96C2689.54 841.198 2687.9 844.379 2685.03 846.637C2682.53 848.648 2679.43 849.654 2675.73 849.654C2670.56 849.654 2666.64 847.992 2663.97 844.666C2661.63 841.793 2660.46 837.914 2660.46 833.029C2660.46 827.118 2662 822.643 2665.08 819.605C2667.75 816.937 2671.36 815.603 2675.92 815.603C2680.27 815.603 2683.72 816.855 2686.26 819.359C2688.44 821.576 2689.67 824.531 2689.96 828.226ZM2724.25 834.814H2702.33C2702.45 837.442 2702.86 839.309 2703.56 840.418C2704.75 842.224 2706.62 843.127 2709.16 843.127C2712.32 843.127 2714.44 841.814 2715.51 839.186H2723.88C2722.94 842.388 2721.09 844.933 2718.34 846.822C2715.63 848.669 2712.45 849.592 2708.79 849.592C2703.83 849.592 2700.01 847.93 2697.34 844.605C2695 841.69 2693.83 837.852 2693.83 833.09C2693.83 827.302 2695.35 822.828 2698.39 819.667C2701.06 816.958 2704.57 815.603 2708.92 815.603C2712.24 815.603 2715.16 816.424 2717.66 818.066C2720.16 819.708 2721.95 822.007 2723.02 824.962C2723.88 827.261 2724.31 830.032 2724.31 833.275C2724.31 833.686 2724.29 834.199 2724.25 834.814ZM2715.44 829.211C2715.03 824.449 2712.84 822.068 2708.86 822.068C2705.12 822.068 2702.99 824.449 2702.45 829.211H2715.44ZM2757.41 825.886H2748.79C2748.75 824.573 2748.28 823.649 2747.38 823.115C2746.47 822.541 2744.91 822.253 2742.7 822.253C2739.45 822.253 2737.83 823.197 2737.83 825.086C2737.83 826.194 2738.82 827.015 2740.79 827.549L2751.5 830.566C2755.77 831.756 2757.91 834.466 2757.91 838.694C2757.91 842.019 2756.61 844.708 2754.03 846.76C2751.6 848.648 2748.12 849.592 2743.56 849.592C2737.98 849.592 2733.97 848.771 2731.55 847.129C2729.17 845.57 2727.9 843.045 2727.73 839.556H2736.17C2736.42 840.91 2736.99 841.814 2737.89 842.265C2738.84 842.717 2740.56 842.942 2743.07 842.942C2747.29 842.942 2749.41 841.937 2749.41 839.925C2749.41 838.735 2748.46 837.852 2746.58 837.277L2736.48 834.199C2733.89 833.419 2732.13 832.516 2731.18 831.489C2729.95 830.217 2729.33 828.493 2729.33 826.317C2729.33 822.746 2730.69 819.995 2733.4 818.066C2735.78 816.424 2738.9 815.603 2742.76 815.603C2747.44 815.603 2751.13 816.65 2753.84 818.743C2756.18 820.591 2757.37 822.972 2757.41 825.886ZM2804.36 804.827V848.915H2795.87V845.282C2793.9 848.156 2790.92 849.592 2786.94 849.592C2782.63 849.592 2779.16 847.786 2776.53 844.174C2774.27 841.095 2773.15 837.257 2773.15 832.659C2773.15 827.2 2774.58 822.889 2777.46 819.729C2779.96 816.978 2783.1 815.603 2786.88 815.603C2790.86 815.603 2793.85 817.122 2795.87 820.16V804.827H2804.36ZM2788.79 822.561C2786.65 822.561 2784.93 823.485 2783.61 825.332C2782.3 827.179 2781.64 829.601 2781.64 832.598C2781.64 835.553 2782.28 837.955 2783.55 839.802C2784.86 841.608 2786.61 842.511 2788.79 842.511C2790.96 842.511 2792.68 841.608 2793.96 839.802C2795.27 837.996 2795.93 835.594 2795.93 832.598C2795.93 829.56 2795.27 827.138 2793.96 825.332C2792.64 823.485 2790.92 822.561 2788.79 822.561ZM2840.72 834.814H2818.8C2818.93 837.442 2819.34 839.309 2820.04 840.418C2821.23 842.224 2823.09 843.127 2825.64 843.127C2828.8 843.127 2830.91 841.814 2831.98 839.186H2840.36C2839.41 842.388 2837.56 844.933 2834.81 846.822C2832.1 848.669 2828.92 849.592 2825.27 849.592C2820.3 849.592 2816.48 847.93 2813.82 844.605C2811.48 841.69 2810.31 837.852 2810.31 833.09C2810.31 827.302 2811.83 822.828 2814.86 819.667C2817.53 816.958 2821.04 815.603 2825.39 815.603C2828.72 815.603 2831.63 816.424 2834.14 818.066C2836.64 819.708 2838.43 822.007 2839.49 824.962C2840.36 827.261 2840.79 830.032 2840.79 833.275C2840.79 833.686 2840.77 834.199 2840.72 834.814ZM2831.92 829.211C2831.51 824.449 2829.31 822.068 2825.33 822.068C2821.6 822.068 2819.46 824.449 2818.93 829.211H2831.92ZM2866.66 804.827V848.915H2858.16V804.827H2866.66ZM2902.77 846.76V848.915H2893.53C2892.92 848.135 2892.59 847.027 2892.55 845.59C2890.29 848.258 2887.01 849.592 2882.7 849.592C2879.53 849.592 2876.99 848.628 2875.06 846.698C2873.5 845.139 2872.72 842.983 2872.72 840.233C2872.72 836.128 2874.36 833.214 2877.65 831.489C2879.04 830.751 2881.81 830.012 2885.96 829.273L2892.61 828.041L2892.55 825.701C2892.51 823.526 2890.86 822.438 2887.62 822.438C2885.53 822.438 2884.05 822.766 2883.19 823.423C2882.37 824.039 2881.85 825.188 2881.65 826.871H2873.52C2874.01 819.359 2878.65 815.603 2887.44 815.603C2892.28 815.603 2895.77 816.465 2897.9 818.189C2899.83 819.831 2900.8 822.315 2900.8 825.64V843.866C2900.8 845.344 2901.46 846.308 2902.77 846.76ZM2892.61 833.152L2886.39 834.568C2884.62 834.979 2883.31 835.574 2882.45 836.354C2881.63 837.134 2881.22 838.098 2881.22 839.248C2881.22 841.588 2882.74 842.758 2885.77 842.758C2890.17 842.758 2892.42 840.356 2892.55 835.553L2892.61 833.152ZM2946.95 825.886H2938.33C2938.29 824.573 2937.81 823.649 2936.91 823.115C2936.01 822.541 2934.45 822.253 2932.23 822.253C2928.99 822.253 2927.37 823.197 2927.37 825.086C2927.37 826.194 2928.35 827.015 2930.32 827.549L2941.04 830.566C2945.31 831.756 2947.44 834.466 2947.44 838.694C2947.44 842.019 2946.15 844.708 2943.56 846.76C2941.14 848.648 2937.65 849.592 2933.09 849.592C2927.51 849.592 2923.51 848.771 2921.09 847.129C2918.71 845.57 2917.43 843.045 2917.27 839.556H2925.71C2925.95 840.91 2926.53 841.814 2927.43 842.265C2928.37 842.717 2930.1 842.942 2932.6 842.942C2936.83 842.942 2938.94 841.937 2938.94 839.925C2938.94 838.735 2938 837.852 2936.11 837.277L2926.01 834.199C2923.43 833.419 2921.66 832.516 2920.72 831.489C2919.49 830.217 2918.87 828.493 2918.87 826.317C2918.87 822.746 2920.22 819.995 2922.93 818.066C2925.32 816.424 2928.43 815.603 2932.29 815.603C2936.97 815.603 2940.67 816.65 2943.38 818.743C2945.72 820.591 2946.91 822.972 2946.95 825.886ZM2981.3 846.76V848.915H2972.06C2971.45 848.135 2971.12 847.027 2971.08 845.59C2968.82 848.258 2965.54 849.592 2961.23 849.592C2958.07 849.592 2955.52 848.628 2953.59 846.698C2952.03 845.139 2951.25 842.983 2951.25 840.233C2951.25 836.128 2952.89 833.214 2956.18 831.489C2957.57 830.751 2960.35 830.012 2964.49 829.273L2971.14 828.041L2971.08 825.701C2971.04 823.526 2969.4 822.438 2966.15 822.438C2964.06 822.438 2962.58 822.766 2961.72 823.423C2960.9 824.039 2960.39 825.188 2960.18 826.871H2952.05C2952.55 819.359 2957.18 815.603 2965.97 815.603C2970.81 815.603 2974.3 816.465 2976.44 818.189C2978.37 819.831 2979.33 822.315 2979.33 825.64V843.866C2979.33 845.344 2979.99 846.308 2981.3 846.76ZM2971.14 833.152L2964.92 834.568C2963.16 834.979 2961.84 835.574 2960.98 836.354C2960.16 837.134 2959.75 838.098 2959.75 839.248C2959.75 841.588 2961.27 842.758 2964.31 842.758C2968.7 842.758 2970.96 840.356 2971.08 835.553L2971.14 833.152ZM2987.02 816.28H2995.52V820.899C2997.82 817.368 3001.06 815.603 3005.25 815.603C3008.98 815.603 3011.82 816.711 3013.74 818.928C3015.39 820.899 3016.21 823.567 3016.21 826.933V848.915H3007.77V828.657C3007.77 824.757 3005.95 822.807 3002.29 822.807C3000.24 822.807 2998.6 823.403 2997.37 824.593C2996.13 825.742 2995.52 827.282 2995.52 829.211V848.915H2987.02V816.28ZM3039.46 816.28V821.884H3033.73V840.048C3033.73 841.239 3033.94 842.06 3034.35 842.511C3034.8 842.963 3035.6 843.189 3036.75 843.189C3037.69 843.189 3038.9 842.819 3040.38 842.08C3040.5 841.998 3040.61 841.937 3040.69 841.896L3041.67 847.684C3039.09 848.956 3036.38 849.592 3033.55 849.592C3028 849.592 3025.23 847.047 3025.23 841.957V821.884H3021.05V816.28H3025.23V810.862L3033.73 805.997V816.28H3039.46ZM3075.54 834.814H3053.62C3053.74 837.442 3054.15 839.309 3054.85 840.418C3056.04 842.224 3057.91 843.127 3060.45 843.127C3063.61 843.127 3065.73 841.814 3066.8 839.186H3075.17C3074.23 842.388 3072.38 844.933 3069.63 846.822C3066.92 848.669 3063.74 849.592 3060.08 849.592C3055.12 849.592 3051.3 847.93 3048.63 844.605C3046.29 841.69 3045.12 837.852 3045.12 833.09C3045.12 827.302 3046.64 822.828 3049.68 819.667C3052.35 816.958 3055.86 815.603 3060.21 815.603C3063.53 815.603 3066.45 816.424 3068.95 818.066C3071.45 819.708 3073.24 822.007 3074.31 824.962C3075.17 827.261 3075.6 830.032 3075.6 833.275C3075.6 833.686 3075.58 834.199 3075.54 834.814ZM3066.73 829.211C3066.32 824.449 3064.13 822.068 3060.15 822.068C3056.41 822.068 3054.28 824.449 3053.74 829.211H3066.73ZM3101.29 816.28V820.96C3103.26 817.389 3106.28 815.603 3110.34 815.603C3112.27 815.603 3114.16 816.075 3116.01 817.019C3117.89 817.963 3119.39 819.195 3120.5 820.714C3122.84 823.957 3124.01 828 3124.01 832.844C3124.01 838.057 3122.55 842.265 3119.64 845.467C3117.13 848.217 3114.04 849.592 3110.34 849.592C3106.32 849.592 3103.3 848.053 3101.29 844.974V862.092H3092.79V816.28H3101.29ZM3108.37 822.684C3106.24 822.684 3104.51 823.608 3103.2 825.455C3101.88 827.261 3101.23 829.663 3101.23 832.659C3101.23 835.615 3101.88 837.996 3103.2 839.802C3104.51 841.608 3106.24 842.511 3108.37 842.511C3110.5 842.511 3112.23 841.608 3113.54 839.802C3114.86 837.996 3115.51 835.615 3115.51 832.659C3115.51 829.663 3114.86 827.261 3113.54 825.455C3112.23 823.608 3110.5 822.684 3108.37 822.684ZM3130.01 816.28H3138.51V822.499C3139.58 817.902 3142.62 815.603 3147.63 815.603C3148.41 815.603 3148.96 815.603 3149.29 815.603L3149.35 823.977C3148.32 823.772 3147.26 823.669 3146.15 823.669C3143.36 823.669 3141.43 824.183 3140.36 825.209C3139.13 826.358 3138.51 828.431 3138.51 831.428V848.915H3130.01V816.28ZM3162.15 816.28V848.915H3153.65V816.28H3162.15ZM3157.84 805.074C3158.94 805.074 3159.87 805.464 3160.61 806.244C3161.39 807.024 3161.78 807.968 3161.78 809.076C3161.78 810.184 3161.39 811.129 3160.61 811.909C3159.87 812.647 3158.94 813.017 3157.84 813.017C3156.73 813.017 3155.78 812.647 3155 811.909C3154.22 811.129 3153.83 810.184 3153.83 809.076C3153.83 807.968 3154.22 807.024 3155 806.244C3155.78 805.464 3156.73 805.074 3157.84 805.074ZM3187.6 848.915H3178.68L3167.28 816.28H3176.27L3183.29 840.172L3189.94 816.28H3198.81L3187.6 848.915ZM3232.18 834.814H3210.26C3210.38 837.442 3210.8 839.309 3211.49 840.418C3212.68 842.224 3214.55 843.127 3217.1 843.127C3220.26 843.127 3222.37 841.814 3223.44 839.186H3231.81C3230.87 842.388 3229.02 844.933 3226.27 846.822C3223.56 848.669 3220.38 849.592 3216.73 849.592C3211.76 849.592 3207.94 847.93 3205.27 844.605C3202.93 841.69 3201.76 837.852 3201.76 833.09C3201.76 827.302 3203.28 822.828 3206.32 819.667C3208.99 816.958 3212.5 815.603 3216.85 815.603C3220.18 815.603 3223.09 816.424 3225.59 818.066C3228.1 819.708 3229.88 822.007 3230.95 824.962C3231.81 827.261 3232.24 830.032 3232.24 833.275C3232.24 833.686 3232.22 834.199 3232.18 834.814ZM3223.38 829.211C3222.97 824.449 3220.77 822.068 3216.79 822.068C3213.05 822.068 3210.92 824.449 3210.38 829.211H3223.38Z" fill="#005D97"/>
<path fill-rule="evenodd" clip-rule="evenodd" d="M243.691 472.465C234.203 471.4 218.327 466.316 218.744 454.608C222.981 451.727 258.664 451.787 266.077 451.932C290.869 453.292 317.466 444.835 342.471 436.884C358.307 431.849 373.505 427.016 387.2 425.01C396.919 423.587 402.701 430.288 409.898 438.632C419.595 449.873 431.862 464.094 459.793 465.441L458.565 476.147C449.653 483.138 418.704 468.7 405.451 462.517C404.34 461.999 403.354 461.539 402.515 461.154C420.017 477.908 436.851 480.934 460.356 482.369L461.653 499.192C450.206 510.339 442.223 515.122 425.492 516.117C421.926 521.635 420.473 521.254 415.508 519.951C414.766 519.757 413.946 519.541 413.028 519.322L412.376 519.967L412.243 520.096C409.725 522.544 409.512 522.75 406.34 524.334C403.573 523.597 403.103 523.116 401.435 521.409C401.255 521.225 401.062 521.027 400.85 520.812C399.754 521.753 398.886 522.56 398.149 523.246C395.412 525.792 394.47 526.668 390.299 526.51L386.012 522.979C380.135 526.839 379.058 527.276 372.036 526.74C372.433 525.989 372.86 525.244 373.286 524.501C374.991 521.525 376.68 518.577 376.394 515.409C373.203 516.972 370.302 521.034 367.829 524.496C367.314 525.217 366.817 525.913 366.341 526.554C365.728 526.603 365.174 526.658 364.66 526.708L364.658 526.708L364.655 526.708C361.932 526.975 360.372 527.127 357.486 525.894L357.07 519.701C353.345 519.858 351.379 521.243 349.06 522.877C347.727 523.816 346.278 524.837 344.312 525.754C339.696 525.884 337.957 525.017 334.408 523.248C333.995 523.042 333.559 522.825 333.09 522.595L333.089 522.591C335.735 519.88 337.905 518.008 339.904 516.283C343.643 513.059 346.787 510.347 351.329 503.619C350.62 504.111 349.92 504.594 349.229 505.072C343.08 509.321 337.583 513.119 331.808 518.254L331.809 518.257C323.689 523.321 315.205 520.208 307.192 516.82C310.575 514.718 313.348 513.176 315.859 511.783C321.451 508.68 325.73 506.305 332.494 500.071C325.126 503.067 317.149 506.818 309.58 510.376C307.415 511.394 305.284 512.396 303.21 513.361C297.567 513.802 288.435 513.382 284.151 509.375L285.098 507.023C290.473 504.369 294.965 502.825 299.384 501.308C305.883 499.076 312.222 496.899 320.974 491.323C311.75 492.269 299.31 496.864 289.402 500.523L289.4 500.524C287.805 501.113 286.274 501.678 284.835 502.199C275.743 505.131 263.35 506.551 260.565 494.9C264.805 493.21 270.609 492.111 276.774 490.945C287.046 489.003 298.32 486.872 305.036 481.494C302.724 481.328 295.244 482.768 286.257 484.499C274.656 486.732 260.544 489.449 251.797 489.818C251.473 489.675 251.138 489.528 250.796 489.379C245.685 487.146 238.792 484.134 238.28 478.473L240.988 476.509C269.717 475.963 280.567 475.054 307.807 466.446C302.819 466.028 250.628 471.327 243.691 472.465ZM243.691 472.465L240.988 476.509L240.985 476.509L243.687 472.465L243.691 472.465ZM251.797 489.818C252.67 489.974 253.481 490.073 254.229 490.163C253.479 490.073 252.667 489.975 251.793 489.818L251.797 489.818ZM260.565 494.9L260.561 494.9C259.547 490.805 257.479 490.554 254.268 490.167C257.481 490.554 259.551 490.803 260.565 494.9ZM284.835 502.199L284.837 502.199L285.098 507.023L285.096 507.023L284.835 502.199ZM303.21 513.361L303.214 513.361L307.192 516.82L307.188 516.82L303.21 513.361ZM331.809 518.257L331.812 518.254L333.089 522.591L333.086 522.595L331.809 518.257Z" fill="#24D4CC"/>
<path d="M460.356 482.369C460.532 475.639 460.544 472.091 459.793 465.441L458.565 476.147C449.653 483.138 418.704 468.7 405.451 462.517C404.34 461.999 403.354 461.539 402.515 461.154C420.017 477.908 436.851 480.934 460.356 482.369Z" fill="#70EFEB"/>
<path fill-rule="evenodd" clip-rule="evenodd" d="M506.729 465.517C533.99 464.998 544.705 452.405 554.053 441.419C564.326 429.346 572.948 419.214 600.063 429.179C624.838 438.283 647.079 446.411 673.656 449.263C688.851 451.249 703.936 452.621 719.271 452.517C720.651 452.548 722.457 452.535 724.493 452.52C731.886 452.467 742.305 452.393 746.326 454.311L747.558 456.546C745.413 463.719 737.558 468.372 731.194 471.57C701.542 470.903 688.276 470.229 658.4 465.318C667.822 472.152 708.189 479.072 719.008 475.712C720.21 475.901 721.149 476 721.923 476.082C724.479 476.353 725.24 476.434 727.761 478.905C726.563 486.601 711.643 490.975 704.95 489.859C703.047 489.523 701.153 489.127 699.276 488.671C696.41 488.061 692.505 487.168 688.148 486.172C676.345 483.473 661.221 480.015 654.427 479.372C663.717 483.415 684.75 492.318 694.274 491.854C695.842 492.181 697.04 492.371 698.016 492.526C701.061 493.01 701.947 493.15 705.218 496.043C704.506 503.864 689.289 504.54 683.219 503.583C679.264 500.846 659.511 494.35 648.737 490.808L648.735 490.807C646.553 490.089 644.74 489.493 643.501 489.074C656.583 497.791 665.886 502.779 681.753 506.134L682.054 509.351C677.079 513.726 666.023 514.061 659.683 513.194C652.707 507.465 639.034 501.666 630.552 498.347C634.621 501.966 641.325 506.146 647.164 509.786C652.571 513.158 657.237 516.067 658.379 517.639L658.102 517.712C650.851 519.631 646.958 520.661 639.309 520.168C638.959 520.266 638.568 520.369 638.156 520.477C638.155 520.478 638.154 520.477 638.153 520.478C638.566 520.369 638.956 520.267 639.306 520.168C629.999 514.479 620.826 508.579 611.79 502.472C619.297 511.538 623.152 514.42 632.021 521.051C632.488 521.401 632.969 521.76 633.466 522.132C633.965 521.81 634.638 521.529 635.375 521.278C634.639 521.529 633.967 521.81 633.468 522.131C623.43 527.646 620.466 526.298 612.068 520.042L609.834 522.569C609.395 524.41 609.359 524.467 608.773 525.394C608.598 525.671 608.373 526.027 608.073 526.532C600.527 527.853 598.873 525.752 595.101 520.959C594.535 520.24 593.921 519.46 593.232 518.622L591.517 518.656C591.688 519.115 591.846 519.526 591.99 519.9C592.876 522.206 593.244 523.164 592.991 526.073L589.264 527.385C585.009 526.475 584.228 525.521 581.981 522.777C581.347 522.003 580.596 521.086 579.617 519.986C578.754 522.897 578.575 523.235 577.168 525.889L577.122 525.977C576.528 526.133 576.057 526.267 575.673 526.376C574.779 526.629 574.356 526.749 573.943 526.72C573.571 526.695 573.208 526.548 572.519 526.271C572.058 526.086 571.451 525.841 570.598 525.535C570.33 525.08 570.095 524.664 569.88 524.283C568.69 522.176 568.082 521.097 565.578 519.936L565.382 520.187C563.353 522.784 563.182 523.003 560.228 524.769L557.726 523.788C557.464 523.397 557.209 522.998 556.954 522.6C555.707 520.647 554.47 518.71 552.446 517.803C552.257 517.994 552.087 518.168 551.931 518.328C550.399 519.894 550.259 520.038 547.634 520.95C543.293 519.128 543.163 518.318 543.027 517.467C542.908 516.722 542.783 515.946 539.818 514.433L534.591 516.383C524.927 515.863 511.13 505.269 504.389 497.975L505.985 481.869L505.972 481.28C505.83 475.035 505.757 471.826 506.729 465.517ZM609.025 521.685C609.304 521.99 609.574 522.285 609.831 522.568L612.065 520.042C611.56 519.397 611.047 518.703 610.523 517.992C608.192 514.836 605.626 511.36 602.442 510.486C602.325 514.366 606.153 518.548 609.025 521.685Z" fill="#24D4CC"/>
<path d="M506.729 465.516C507.227 470.883 506.442 474.388 509.526 477.369C527.69 481.692 561.204 460.072 564.496 461.091C563.16 465.466 560.762 467.043 556.866 469.169C541.216 477.543 523.734 481.905 505.985 481.869C505.835 475.231 505.727 472.021 506.729 465.516Z" fill="#70EFEB"/>
<path d="M267.73 529.192C343.238 531.916 388.561 560.896 424.087 628.463L420.705 628.796C393.146 588.082 361.115 560.761 311.408 551.032C302.836 549.365 294.174 548.198 285.469 547.544C274.597 596.166 260.945 646.853 248.813 695.425C348.511 729.188 420.536 773.82 468.881 871.673C473.311 880.639 476.637 887.687 479.315 897.45C418.896 790.315 338.782 734.105 217.188 717.57L251.337 590.152C256.399 571.159 261.969 547.694 267.73 529.192Z" fill="#10547E"/>
<path d="M538.158 634.68C572.539 565.396 618.678 529.283 697.467 527.771L748.707 715.929C622.461 733.828 552.392 789.373 487.686 896.982C517.811 813.788 579.005 753.632 658.402 716.553C677.44 707.821 697.022 700.328 717.026 694.121C709.452 662.909 701.568 631.772 693.38 600.714C689.051 584.043 683.95 562.097 678.894 546.266C629.446 551.623 591.626 567.812 559.658 607.535C552.605 616.468 546.269 625.938 540.709 635.866L538.158 634.68Z" fill="#10547E"/>
<path d="M761.348 578.985L762.657 578.901C765.049 581.164 812.475 747.999 818.357 767.774C716.943 781.02 599.076 808.085 520.068 876.178C512.23 882.933 506.37 890.525 498.839 897.407L498.191 896.078C549.331 805.201 688.214 770.076 784.162 750.008L745.851 596.306C738.054 597.748 729.73 601.043 723.383 595.958C722.467 591.826 722.078 590.951 723.711 587.125C729.757 580.495 751.034 580.261 761.348 578.985Z" fill="#147ABA"/>
<path d="M201.511 580.635L243.781 585.978L241.085 601.34L219.317 597.895C207.361 649.455 195.03 700.927 182.33 752.308C184.936 752.791 187.543 753.291 190.142 753.805C270.787 769.72 374.102 798.246 435.746 854.03C448.463 865.537 458.069 878.646 467.557 892.795L469.358 897.551C468.252 898.162 452.963 881.61 450.134 879.119C369.167 807.85 252.203 784.184 148.357 770.339C165.352 707.695 185.531 643.211 201.511 580.635Z" fill="#147ABA"/>
<path d="M122.489 702.654C133.442 703.072 144.391 703.638 155.333 704.35C151.099 726.71 151.505 716.654 138.273 723.299C128.476 748.786 115.699 795.527 106.977 823.739C127.479 823.993 148.292 821.411 169.43 822.121C254.597 824.981 350.75 830.705 424.971 876.112C433.951 881.605 450.118 895.086 455.258 903.303L453.895 903.559L447.871 899.206C430.56 884.149 398.568 871.369 376.851 864.789C276.085 834.246 172.925 844.707 70.1562 853.335C88.482 803.418 105.928 753.185 122.489 702.654Z" fill="#37A5D5"/>
<path d="M841.887 699.942L842.921 700.316C846.339 706.461 856.896 739.197 859.877 747.482C872.227 781.829 883.927 816.966 897.509 850.879C782.9 837.079 619.167 830.717 520.647 897.919C517.07 900.759 512.867 903.189 508.961 905.614C581.153 821.418 755.811 817.985 859.932 821.096C855.261 806.437 832.455 727.139 826.515 720.359C812.581 719.009 813.397 714.033 810.426 702.009C820.085 701.809 832.08 700.645 841.887 699.942Z" fill="#37A5D5"/>
<path fill-rule="evenodd" clip-rule="evenodd" d="M513.531 593.956C551.59 621.803 512.502 646.796 486.138 659.015C478.22 662.684 466.435 669.244 463.756 678.124C464.756 684.945 469.916 688.887 476.377 690.983C483.401 696.227 492.186 693.638 497.823 687.119C507.024 676.484 499.362 669.945 490.42 663.643L490.517 661.885L503.002 654.892C525.282 674.609 518.787 689.739 494.802 702.297C515.91 719.973 506.028 728.589 486.461 739.56C475.906 745.477 473.051 747.139 472.486 759.211L469.872 758.921C465.94 751.866 470.382 743.736 475.152 738.159C476.302 737.439 477.513 736.718 478.745 735.985C488.031 730.46 498.532 724.211 493.235 712.176C487.203 706.591 480.102 707.734 473.909 712.726C467.958 717.523 470.411 720.792 473.06 724.321C474.8 726.638 476.623 729.067 476.206 732.115L471.126 735.818C469.863 734.581 468.623 733.321 467.408 732.04C455.479 719.405 460.24 711.925 471.177 701.867C463.691 698.35 449.274 689.114 449.201 680.181C449.216 662.674 464.968 653.956 480.569 645.322C491.066 639.512 501.495 633.74 507.016 625.354C514.642 613.775 501.823 607.922 493.595 604.166L493.041 603.912L493.589 601.828C495.39 601.126 497.252 600.414 499.139 599.693L499.141 599.692C503.999 597.836 509.013 595.92 513.531 593.956Z" fill="#147ABA"/>
<path d="M490.515 661.885L490.421 663.643C485.385 672.921 493.474 681.261 484.078 689.969C482.066 690.406 480.255 690.913 478.211 691.034L476.689 669.612C480.738 667.078 486.23 664.247 490.515 661.885Z" fill="#24D4CC"/>
<path d="M484.985 710.546C491.577 716.712 486.823 724.258 481.234 728.825C475.425 723.519 479.065 714.736 484.985 710.546Z" fill="#24D4CC"/>
<path d="M471.072 465.055C439.613 434.282 473.598 406.169 501.115 425.882C515.619 436.273 505.274 454.313 495.31 465.417C493.477 499.822 493.12 537.529 492.192 572.215C485.54 574.323 480.224 575.941 473.811 578.838L474.13 576.625C474.927 569.504 473.823 547.053 473.569 539.123L471.072 465.055Z" fill="#24D4CC"/>
<path fill-rule="evenodd" clip-rule="evenodd" d="M494.545 576.15C492.866 576.679 491.334 577.161 490.008 577.599L489.501 575.722L492.194 572.215L492.191 572.215L490.857 572.638C490.856 572.639 490.855 572.638 490.854 572.638C484.812 574.549 479.787 576.139 473.81 578.838C464.933 582.56 461.337 584.135 453.035 589.331L454.149 593.094L454.151 593.094C426 613.456 437.598 634.4 462.528 650.124C469.313 646.994 471.977 645.68 478.073 641.46L475.293 639.098C438.434 614.952 464.792 606.121 496.013 595.661C525.247 585.866 558.745 574.643 548.601 548.08C540.652 527.269 505.177 513.665 498.501 529.854C501.891 538.764 508.954 539.063 516.339 539.375C523.54 539.68 531.048 539.998 535.754 548.327C536.379 562.984 509.537 571.432 494.545 576.15ZM454.151 593.094C463.623 587.92 477.973 582.306 488.599 578.149C489.076 577.963 489.545 577.779 490.005 577.599L489.498 575.722L492.191 572.215C491.741 572.358 491.296 572.499 490.857 572.638C484.815 574.549 479.79 576.139 473.813 578.838C464.936 582.56 461.339 584.135 453.038 589.331L454.151 593.094Z" fill="#147ABA"/>
<path d="M453.037 589.331C448.887 588.712 435.375 582.802 431.557 580.575C395.828 559.722 433.305 510.429 464.177 526.049C467.013 527.484 467.141 528.793 467.684 531.593C459.578 542.537 435.627 536.868 429.528 548.641C429.462 563.406 462.247 572.937 474.131 576.625L473.812 578.838C464.935 582.56 461.339 584.135 453.037 589.331Z" fill="#147ABA"/>
<path d="M474.98 608.118L493.584 601.828L493.036 603.913C489.381 609.992 491.304 624.352 489.669 634.257L478.07 641.46L475.29 639.098C477.652 634.813 475.418 614.325 474.98 608.118Z" fill="#24D4CC"/>
<path d="M482.052 745.656L485.745 746.989C488.431 753.53 485.91 791.225 484.287 799.401C477.78 795.563 478.586 752.714 482.052 745.656Z" fill="#24D4CC"/>
<path d="M424.09 628.462C429.943 638.88 433.308 647.675 437.482 658.812C435.607 657.027 422.871 632.755 420.709 628.796L424.09 628.462Z" fill="#10547E"/>
<path d="M480.592 0C490.123 1.15167 559.847 34.6148 573.711 40.919L792.084 139.816L896.669 187.194C910.613 193.481 958.032 211.06 961.851 223.113C956.129 233.767 763.34 282.023 736.351 294.278C734.95 298.831 734.194 302.573 730.882 306.056C721.187 309.167 703.96 296.491 693.931 293.245C572.627 253.999 374.297 249.047 256.164 297.184C249.111 300.554 236.45 308.102 229.426 305.771C223.737 300.706 227.877 291.088 218.897 288.097C203.781 283.061 188.496 278.436 173.274 273.706L71.4817 242.41C71.7232 264.598 71.7812 286.788 71.6605 308.979C99.8773 319.575 100.145 343.478 78.4139 361.985C88.4524 392.334 89.5345 409.271 89.1166 440.94L42.9074 441.133C42.1465 409.75 44.2069 392.078 53.4362 362.171C31.5912 343.42 32.4052 320.249 60.2404 308.882L60.2186 238.842C49.202 235.608 0.280188 224.864 0 213.36C4.63759 205.348 46.4315 189.503 57.7597 184.575L157.618 140.95L480.592 0Z" fill="#10547E"/>
<path d="M226.023 332.05C301.865 262.37 663.544 258.878 733.965 333.306C734.277 353.149 733.965 373.856 733.958 393.769C831.55 475.519 880.928 564.343 893.527 691.763C893.363 696.889 893.846 700.606 891.039 704.727C876.871 595.226 819.321 496.001 731.303 429.317C643.16 362.132 531.684 333.236 421.995 349.139C313.524 364.646 215.656 422.597 149.918 510.245C104.371 570.522 80.5936 634.044 70.1615 708.149C68.4151 705.553 67.9803 701.381 67.3789 698.174C80.5429 567.664 125.414 480.574 225.615 395.479C225.311 377.965 224.337 348.854 226.023 332.05Z" fill="#10547E"/>
<path d="M893.53 691.763C895.629 703.304 894.89 716.937 893.718 728.598L893.061 729.195C892.561 724.354 890.769 708.7 891.042 704.727C893.848 700.606 893.365 696.889 893.53 691.763Z" fill="#10547E"/>
<path d="M70.1599 708.149C69.6841 715.698 69.4908 721.164 67.7976 728.618C66.0078 720.062 66.5392 706.855 67.3773 698.174C67.9788 701.381 68.4136 705.553 70.1599 708.149Z" fill="#10547E"/>
<path d="M526.938 663.592C529.512 653.455 533.039 643.82 538.162 634.68L540.713 635.866C536.978 644.737 531.44 654.87 526.938 663.592Z" fill="#10547E"/>
<rect width="13.9199" height="604.127" rx="6.95996" transform="matrix(-1 0 0 1 1173.79 248.891)" fill="#10547E"/>
</svg>
